<svg version="1.1" xmlns="http://www.w3.org/2000/svg" viewBox="0 0 1321.00030580163 680" width="1321.00030580163" height="680">
    <!-- svg-source:excalidraw -->

    <defs>
        <style class="style-fonts">
            @font-face {
            font-family: "Virgil";
            src: url("https://excalidraw.com/Virgil.woff2");
            }
            @font-face {
            font-family: "Cascadia";
            src: url("https://excalidraw.com/Cascadia.woff2");
            }
            @font-face {
            font-family: "Assistant";
            src: url("https://excalidraw.com/Assistant-Regular.woff2");
            }
        </style>

    </defs>
    <rect x="0" y="0" width="1321.00030580163" height="680" fill="#ffffff"></rect><g stroke-linecap="round" transform="translate(270 110) rotate(0 110 100)"><path d="M32 0 C87.77 -1.49, 143.79 -1.69, 188 0 C211.37 1.95, 221.43 13.51, 220 32 C217.31 87.48, 216.69 137.98, 220 168 C223.16 192.85, 208.64 196.67, 188 200 C148.78 200.42, 109.1 199.81, 32 200 C9.41 198.37, 1.73 189.08, 0 168 C-3.37 120.16, -0.38 63.04, 0 32 C-0.2 7.73, 11.67 -2.42, 32 0" stroke="none" stroke-width="0" fill="#a5d8ff"></path><path d="M32 0 C76.42 2.66, 120.51 -0.8, 188 0 M32 0 C64.38 -1.19, 97.52 -0.74, 188 0 M188 0 C208.6 -0.36, 220.84 9.28, 220 32 M188 0 C207.18 -0.37, 221.76 10.37, 220 32 M220 32 C220.49 59.37, 219.09 86.1, 220 168 M220 32 C219.94 64.89, 220.89 98.95, 220 168 M220 168 C221.57 187.93, 210.27 198.14, 188 200 M220 168 C220.32 187.75, 208.81 199.92, 188 200 M188 200 C155.69 200.75, 119.44 202.08, 32 200 M188 200 C137.33 200.03, 84.5 200.9, 32 200 M32 200 C11.49 200.19, 0.12 189.22, 0 168 M32 200 C12.38 198.88, -0.66 188.7, 0 168 M0 168 C-0.22 132.33, -0.79 98.21, 0 32 M0 168 C-2.02 129.73, -0.4 90.78, 0 32 M0 32 C-1.14 10.51, 10.16 0.49, 32 0 M0 32 C1.32 10.35, 12.8 0.43, 32 0" stroke="#1971c2" stroke-width="1" fill="none"></path></g><g stroke-linecap="round" transform="translate(310 130) rotate(0 70 30)"><path d="M1.27 0.27 L139.82 -0.9 L141.76 59.54 L0.7 59.37" stroke="none" stroke-width="0" fill="#ffec99"></path><path d="M0 0 C32.92 -0.16, 68.02 1.92, 140 0 M0 0 C48.2 0.23, 95.71 -1.03, 140 0 M140 0 C139.26 19.1, 139.41 39.42, 140 60 M140 0 C140.26 22.21, 139.41 45.61, 140 60 M140 60 C112.05 60.73, 81.62 58.77, 0 60 M140 60 C90.68 60.8, 40.95 59.88, 0 60 M0 60 C-1.13 44.45, -1.49 24.46, 0 0 M0 60 C-0.1 37.06, -0.08 13.33, 0 0" stroke="#f08c00" stroke-width="1" fill="none"></path></g><g transform="translate(341.6200485229492 135) rotate(0 38.37995147705078 25)"><text x="38.37995147705078" y="17.52" font-family="Virgil, Segoe UI Emoji" font-size="20px" fill="#f08c00" text-anchor="middle" style="white-space: pre;" direction="ltr" dominant-baseline="alphabetic">Static </text><text x="38.37995147705078" y="42.519999999999996" font-family="Virgil, Segoe UI Emoji" font-size="20px" fill="#f08c00" text-anchor="middle" style="white-space: pre;" direction="ltr" dominant-baseline="alphabetic">analysis</text></g><g stroke-linecap="round" transform="translate(310 230) rotate(0 70 30)"><path d="M1 -0.89 L139.52 1.97 L141.17 60.96 L-0.48 60.94" stroke="none" stroke-width="0" fill="#ffec99"></path><path d="M0 0 C33.06 -0.73, 63.82 -2.18, 140 0 M0 0 C50.83 -0.44, 101.27 -0.14, 140 0 M140 0 C138.13 11.06, 138.85 25.76, 140 60 M140 0 C139.32 16.79, 140.18 31.09, 140 60 M140 60 C103.03 60.92, 64.2 61.02, 0 60 M140 60 C94.02 60.71, 45.73 60.33, 0 60 M0 60 C-0.9 47.98, -0.1 35.42, 0 0 M0 60 C0.26 46.79, 0.42 32.81, 0 0" stroke="#f08c00" stroke-width="1" fill="none"></path></g><g transform="translate(315.47007751464844 235) rotate(0 64.52992248535156 25)"><text x="64.52992248535156" y="17.52" font-family="Virgil, Segoe UI Emoji" font-size="20px" fill="#f08c00" text-anchor="middle" style="white-space: pre;" direction="ltr" dominant-baseline="alphabetic">Evolutionary </text><text x="64.52992248535156" y="42.519999999999996" font-family="Virgil, Segoe UI Emoji" font-size="20px" fill="#f08c00" text-anchor="middle" style="white-space: pre;" direction="ltr" dominant-baseline="alphabetic">analysis</text></g><g stroke-linecap="round" transform="translate(10 170) rotate(0 100 40)"><path d="M20 0 C76.93 4.86, 141.45 2.82, 180 0 C190.14 2.91, 200.69 10.11, 200 20 C202.68 36.34, 200.81 52.86, 200 60 C200.29 76.09, 196.01 76.69, 180 80 C118.18 79.62, 55.83 81.58, 20 80 C7.18 82.33, -1.05 70.25, 0 60 C-1.95 54.71, -1.72 42.81, 0 20 C-0.23 5.58, 9.4 -0.91, 20 0" stroke="none" stroke-width="0" fill="#b2f2bb"></path><path d="M20 0 C54.74 -0.54, 87.15 2.49, 180 0 M20 0 C66.88 -0.9, 115.62 0.67, 180 0 M180 0 C193.26 1.87, 200.09 5.13, 200 20 M180 0 C194.82 2.09, 198.07 5.57, 200 20 M200 20 C200.46 29.45, 199.12 38.42, 200 60 M200 20 C200.72 29, 200.64 36.8, 200 60 M200 60 C199.2 74.57, 192.75 81.6, 180 80 M200 60 C200.17 73.2, 192.34 79.71, 180 80 M180 80 C130.54 81.33, 83.75 78.01, 20 80 M180 80 C146.27 80.01, 111.11 80.8, 20 80 M20 80 C8.44 78.08, 0.51 74.64, 0 60 M20 80 C5.37 80.54, 0.67 74.22, 0 60 M0 60 C0.73 48.1, 0.57 35, 0 20 M0 60 C0.72 48.04, 0.48 34.76, 0 20 M0 20 C-1.3 6.57, 6.27 -0.63, 20 0 M0 20 C-0.1 5.1, 7.06 1.64, 20 0" stroke="#2f9e44" stroke-width="1" fill="none"></path></g><g transform="translate(46.19007110595703 185) rotate(0 63.80992889404297 25)"><text x="63.80992889404297" y="17.52" font-family="Virgil, Segoe UI Emoji" font-size="20px" fill="#2f9e44" text-anchor="middle" style="white-space: pre;" direction="ltr" dominant-baseline="alphabetic">Source code </text><text x="63.80992889404297" y="42.519999999999996" font-family="Virgil, Segoe UI Emoji" font-size="20px" fill="#2f9e44" text-anchor="middle" style="white-space: pre;" direction="ltr" dominant-baseline="alphabetic">repository</text></g><g stroke-linecap="round" transform="translate(270 10) rotate(0 110 30)"><path d="M15 0 C71.7 -0.74, 127.95 -0.09, 205 0 M205 0 C216.22 1.16, 221.43 4.71, 220 15 M220 15 C221.06 25.51, 220.73 35.44, 220 45 M220 45 C221.8 54.84, 216.3 58.61, 205 60 M205 60 C136.87 61.91, 64.84 58.1, 15 60 M15 60 C3.98 60.24, 0.59 54.8, 0 45 M0 45 C-0.6 35.44, 1.06 27.55, 0 15 M0 15 C1.55 6.43, 6.19 -0.89, 15 0" stroke="#1e1e1e" stroke-width="1.5" fill="none" stroke-dasharray="8 9"></path></g><g transform="translate(319.13006591796875 15) rotate(0 60.86993408203125 25)"><text x="60.86993408203125" y="17.52" font-family="Virgil, Segoe UI Emoji" font-size="20px" fill="#1e1e1e" text-anchor="middle" style="white-space: pre;" direction="ltr" dominant-baseline="alphabetic">Information </text><text x="60.86993408203125" y="42.519999999999996" font-family="Virgil, Segoe UI Emoji" font-size="20px" fill="#1e1e1e" text-anchor="middle" style="white-space: pre;" direction="ltr" dominant-baseline="alphabetic">extraction</text></g><g stroke-linecap="round"><g transform="translate(211 210.0082315422447) rotate(0 29 -0.0014125131662581225)"><path d="M0.33 0.39 C9.98 0.4, 49.48 1.36, 59.05 1.11 M-0.96 -0.46 C8.53 -0.24, 49.02 -0.45, 58.66 -0.42" stroke="#1e1e1e" stroke-width="1" fill="none"></path></g><g transform="translate(211 210.0082315422447) rotate(0 29 -0.0014125131662581225)"><path d="M35.18 8.16 C45.02 6.46, 55.51 0.92, 58.66 -0.42 M35.18 8.16 C39.77 5.89, 44.96 3.92, 58.66 -0.42" stroke="#1e1e1e" stroke-width="1" fill="none"></path></g><g transform="translate(211 210.0082315422447) rotate(0 29 -0.0014125131662581225)"><path d="M35.15 -8.94 C45.15 -3.89, 55.66 -2.66, 58.66 -0.42 M35.15 -8.94 C39.68 -7.6, 44.87 -5.96, 58.66 -0.42" stroke="#1e1e1e" stroke-width="1" fill="none"></path></g></g><mask></mask><g stroke-linecap="round" transform="translate(1111.00030580163 170) rotate(0 100 40)"><path d="M20 0 C60.53 0.75, 97.18 0.51, 180 0 C194.27 -1.74, 203.46 5.02, 200 20 C197.84 29.68, 198.24 41.1, 200 60 C199.71 76.27, 195.19 82.67, 180 80 C130 77.75, 87.79 83.42, 20 80 C6.83 79.5, 1.32 75.8, 0 60 C-0.89 44.25, 4.1 34.34, 0 20 C-1.14 3.67, 6.18 -1.65, 20 0" stroke="none" stroke-width="0" fill="#b2f2bb"></path><path d="M20 0 C55.62 -1.17, 91.2 -2.04, 180 0 M20 0 C74.4 -0.46, 130.8 -0.11, 180 0 M180 0 C195.03 0.11, 200.32 5.46, 200 20 M180 0 C193.11 -1.22, 199.75 6.36, 200 20 M200 20 C198.62 35.94, 198.58 48.12, 200 60 M200 20 C200.68 33.42, 201.26 47.73, 200 60 M200 60 C201.88 72.79, 192.31 80.21, 180 80 M200 60 C201.84 72.6, 195.54 80.09, 180 80 M180 80 C124.77 81.89, 71.58 81.57, 20 80 M180 80 C129.45 79.93, 76.42 81.04, 20 80 M20 80 C6.45 78.07, -1.06 71.84, 0 60 M20 80 C5.69 81.08, -2.19 72.75, 0 60 M0 60 C-1.64 46.14, 0.11 29.77, 0 20 M0 60 C-0.5 48.97, 0.31 39.14, 0 20 M0 20 C0.39 5.38, 6.17 -1.35, 20 0 M0 20 C1.17 6.47, 8 -1.89, 20 0" stroke="#2f9e44" stroke-width="1" fill="none"></path></g><g transform="translate(1167.4903570711613 185) rotate(0 43.50994873046875 25)"><text x="43.50994873046875" y="17.52" font-family="Virgil, Segoe UI Emoji" font-size="20px" fill="#2f9e44" text-anchor="middle" style="white-space: pre;" direction="ltr" dominant-baseline="alphabetic">Proposed</text><text x="43.50994873046875" y="42.519999999999996" font-family="Virgil, Segoe UI Emoji" font-size="20px" fill="#2f9e44" text-anchor="middle" style="white-space: pre;" direction="ltr" dominant-baseline="alphabetic">solution</text></g><g stroke-linecap="round"><g transform="translate(1051.00030580163 210) rotate(0 29.5 0)"><path d="M-1 -0.16 C8.61 -0.11, 48.3 0.09, 58.45 -0.04 M0.68 -1.29 C10.01 -1, 47.39 1.27, 57.21 1.47" stroke="#1e1e1e" stroke-width="1" fill="none"></path></g><g transform="translate(1051.00030580163 210) rotate(0 29.5 0)"><path d="M33.38 9.01 C41.87 5.53, 50.8 5.21, 57.21 1.47 M33.38 9.01 C39.57 6.44, 43.46 6.4, 57.21 1.47" stroke="#1e1e1e" stroke-width="1" fill="none"></path></g><g transform="translate(1051.00030580163 210) rotate(0 29.5 0)"><path d="M34.11 -8.07 C42.28 -5.3, 50.94 0.64, 57.21 1.47 M34.11 -8.07 C40.09 -6.86, 43.82 -3.11, 57.21 1.47" stroke="#1e1e1e" stroke-width="1" fill="none"></path></g></g><mask></mask><g stroke-linecap="round" transform="translate(550.4950793730095 110) rotate(0 110 100)"><path d="M32 0 C72.87 -0.66, 118.82 2.12, 188 0 C208.13 2.79, 218.74 12.54, 220 32 C218.18 77.06, 216.97 117.86, 220 168 C217.21 191.18, 212.28 202.9, 188 200 C155.12 201.8, 115.68 195.43, 32 200 C12.57 196.87, 2.63 192.57, 0 168 C2.11 140.29, 1.34 108.14, 0 32 C0.54 9.12, 8.41 -2.76, 32 0" stroke="none" stroke-width="0" fill="#a5d8ff"></path><path d="M32 0 C84.7 2.21, 141.95 -0.13, 188 0 M32 0 C89.71 -0.53, 147.32 -1.03, 188 0 M188 0 C207.43 -0.49, 219.96 10.61, 220 32 M188 0 C208.73 -0.78, 217.85 10.99, 220 32 M220 32 C222.04 65.43, 222.47 99.25, 220 168 M220 32 C218.07 82.39, 219.75 133.52, 220 168 M220 168 C220.03 190.29, 208.77 200.24, 188 200 M220 168 C221.72 188.62, 209.06 201.66, 188 200 M188 200 C143.82 198.75, 97.83 201.41, 32 200 M188 200 C141.09 200.1, 92.88 200.4, 32 200 M32 200 C10.15 198.24, 0.83 189.24, 0 168 M32 200 C12.13 198.93, 0.67 189.36, 0 168 M0 168 C-2.97 134.91, -3.21 98.61, 0 32 M0 168 C1.48 119.78, 1.67 71.35, 0 32 M0 32 C-1.48 10.84, 8.92 -1.58, 32 0 M0 32 C-1.13 10.04, 9.54 -0.42, 32 0" stroke="#1971c2" stroke-width="1" fill="none"></path></g><g stroke-linecap="round" transform="translate(590.4950793730095 170) rotate(0 70 30)"><path d="M1.27 -0.93 L140.58 0.03 L139.04 61.99 L1.13 58.39" stroke="none" stroke-width="0" fill="#ffec99"></path><path d="M0 0 C36.64 0.98, 72.18 0.93, 140 0 M0 0 C28.49 0.31, 56.77 0, 140 0 M140 0 C141.6 13.84, 141.1 25.55, 140 60 M140 0 C139.65 22.72, 139.89 44.68, 140 60 M140 60 C84.96 59.45, 28.25 61.52, 0 60 M140 60 C102.2 60.99, 64.92 61.14, 0 60 M0 60 C0.49 45.35, 1.33 35, 0 0 M0 60 C-0.35 44.91, 0.33 31.54, 0 0" stroke="#f08c00" stroke-width="1" fill="none"></path></g><g transform="translate(608.0251391874626 175) rotate(0 52.469940185546875 25)"><text x="52.469940185546875" y="17.52" font-family="Virgil, Segoe UI Emoji" font-size="20px" fill="#f08c00" text-anchor="middle" style="white-space: pre;" direction="ltr" dominant-baseline="alphabetic">Clustering </text><text x="52.469940185546875" y="42.519999999999996" font-family="Virgil, Segoe UI Emoji" font-size="20px" fill="#f08c00" text-anchor="middle" style="white-space: pre;" direction="ltr" dominant-baseline="alphabetic">algorithm</text></g><g stroke-linecap="round" transform="translate(550 10) rotate(0 110 30)"><path d="M15 0 C71.29 -1.98, 130.94 -0.11, 205 0 M205 0 C214.94 -0.52, 219.32 3.13, 220 15 M220 15 C221.26 25.44, 220.57 35.29, 220 45 M220 45 C221.89 56.41, 213.16 60.79, 205 60 M205 60 C162.43 61.93, 117.62 61.33, 15 60 M15 60 C5.24 61.5, -0.62 54.76, 0 45 M0 45 C0.48 34.1, -1.55 21.39, 0 15 M0 15 C1.07 5.11, 3.58 0.94, 15 0" stroke="#1e1e1e" stroke-width="1.5" fill="none" stroke-dasharray="8 9"></path></g><g transform="translate(593.7000732421875 27.5) rotate(0 66.2999267578125 12.5)"><text x="66.2999267578125" y="17.52" font-family="Virgil, Segoe UI Emoji" font-size="20px" fill="#1e1e1e" text-anchor="middle" style="white-space: pre;" direction="ltr" dominant-baseline="alphabetic">Decomposition</text></g><g stroke-linecap="round"><g transform="translate(491.4950793730095 209.94015837548494) rotate(0 29 0.010268681129801394)"><path d="M-0.02 -0.03 C9.78 -0.05, 48.2 -0.43, 57.69 -0.39 M-1.5 -1.1 C8.22 -0.92, 46.46 0.49, 56.57 0.93" stroke="#1e1e1e" stroke-width="1" fill="none"></path></g><g transform="translate(491.4950793730095 209.94015837548494) rotate(0 29 0.010268681129801394)"><path d="M32.76 8.54 C37.6 6.47, 41.84 3.57, 56.57 0.93 M32.76 8.54 C41.01 6.48, 48.15 4.3, 56.57 0.93" stroke="#1e1e1e" stroke-width="1" fill="none"></path></g><g transform="translate(491.4950793730095 209.94015837548494) rotate(0 29 0.010268681129801394)"><path d="M33.44 -8.54 C38.09 -7.12, 42.2 -6.53, 56.57 0.93 M33.44 -8.54 C41.37 -5.23, 48.3 -2.04, 56.57 0.93" stroke="#1e1e1e" stroke-width="1" fill="none"></path></g></g><mask></mask><g stroke-linecap="round" transform="translate(829.5227806564421 110) rotate(0 110 100)"><path d="M32 0 C76.66 -3.34, 122.43 -3.48, 188 0 C207.93 -1.18, 223.26 13.58, 220 32 C220.09 66.71, 218.41 99.14, 220 168 C218.14 191.88, 210.95 197, 188 200 C136.87 197.29, 76.09 199.8, 32 200 C10.89 199.58, -3.3 186.84, 0 168 C1.83 128.08, 3.1 83.71, 0 32 C0.97 13.72, 9.78 0.38, 32 0" stroke="none" stroke-width="0" fill="#a5d8ff"></path><path d="M32 0 C64 2.31, 98.94 -0.06, 188 0 M32 0 C69.86 -0.92, 107.65 -1.11, 188 0 M188 0 C208.71 0.57, 219.13 12.09, 220 32 M188 0 C210.23 1.55, 221.02 11.73, 220 32 M220 32 C218.08 65.65, 217.82 98.96, 220 168 M220 32 C220.86 61.87, 220.54 89.72, 220 168 M220 168 C219.21 191.07, 210.68 200.72, 188 200 M220 168 C218.38 188.66, 207.26 198.55, 188 200 M188 200 C137.72 200.13, 86.44 201.4, 32 200 M188 200 C127.59 199.43, 65.86 198.04, 32 200 M32 200 C12.46 201.44, 0.95 191.26, 0 168 M32 200 C12.87 199.54, -0.68 189.28, 0 168 M0 168 C-1.72 115.8, 0.52 60.18, 0 32 M0 168 C1.18 140.75, -0.21 112.62, 0 32 M0 32 C-0.7 9.97, 11.7 -1.5, 32 0 M0 32 C-0.38 12.18, 10.95 -0.03, 32 0" stroke="#1971c2" stroke-width="1" fill="none"></path></g><g stroke-linecap="round" transform="translate(869.5227806564421 170) rotate(0 70 30)"><path d="M1.92 -0.4 L139.41 -0.05 L141.81 61.92 L-1.56 59.59" stroke="none" stroke-width="0" fill="#ffec99"></path><path d="M0 0 C40.56 -2.01, 78.42 -2.88, 140 0 M0 0 C47.44 0.31, 96.15 0.27, 140 0 M140 0 C139.35 20.57, 138.99 42.38, 140 60 M140 0 C141.37 13, 140.28 27.36, 140 60 M140 60 C107.86 60.79, 72.97 58.04, 0 60 M140 60 C102.42 58.39, 64.63 59.72, 0 60 M0 60 C1.34 42.44, -1.92 27.19, 0 0 M0 60 C1.48 39.13, 1.06 17.79, 0 0" stroke="#f08c00" stroke-width="1" fill="none"></path></g><g transform="translate(899.9628288742156 175) rotate(0 39.55995178222656 25)"><text x="39.55995178222656" y="17.52" font-family="Virgil, Segoe UI Emoji" font-size="20px" fill="#f08c00" text-anchor="middle" style="white-space: pre;" direction="ltr" dominant-baseline="alphabetic">Quality </text><text x="39.55995178222656" y="42.519999999999996" font-family="Virgil, Segoe UI Emoji" font-size="20px" fill="#f08c00" text-anchor="middle" style="white-space: pre;" direction="ltr" dominant-baseline="alphabetic">metrics</text></g><g stroke-linecap="round" transform="translate(829.5227806564421 10) rotate(0 110 30)"><path d="M15 0 C66.01 0.88, 115.91 0.63, 205 0 M205 0 C216.42 0.78, 221.35 5.88, 220 15 M220 15 C219.74 24.1, 220.9 34.23, 220 45 M220 45 C221.81 53.29, 216.65 59.32, 205 60 M205 60 C151.61 58.1, 102.57 60.24, 15 60 M15 60 C5.72 58.6, -0.59 53.2, 0 45 M0 45 C0.69 39.1, -0.57 32.2, 0 15 M0 15 C0.8 6.77, 4.01 -1.5, 15 0" stroke="#1e1e1e" stroke-width="1.5" fill="none" stroke-dasharray="8 9"></path></g><g transform="translate(843.9828941818328 27.5) rotate(0 95.53988647460938 12.5)"><text x="95.53988647460938" y="17.52" font-family="Virgil, Segoe UI Emoji" font-size="20px" fill="#1e1e1e" text-anchor="middle" style="white-space: pre;" direction="ltr" dominant-baseline="alphabetic">Quality assessment</text></g><g stroke-linecap="round"><g transform="translate(771.4950793730095 210.00018954582052) rotate(0 28.513850641716317 -0.00003216541780659554)"><path d="M-0.52 0.85 C9.12 0.93, 47.81 0.86, 57.49 0.81 M1.4 0.26 C10.96 -0.03, 47.51 -0.6, 56.79 -0.89" stroke="#1e1e1e" stroke-width="1" fill="none"></path></g><g transform="translate(771.4950793730095 210.00018954582052) rotate(0 28.513850641716317 -0.00003216541780659554)"><path d="M33.5 8.19 C41.16 6.63, 47.34 4.29, 56.79 -0.89 M33.5 8.19 C41.58 4.51, 50.22 1.23, 56.79 -0.89" stroke="#1e1e1e" stroke-width="1" fill="none"></path></g><g transform="translate(771.4950793730095 210.00018954582052) rotate(0 28.513850641716317 -0.00003216541780659554)"><path d="M33.11 -8.91 C40.92 -5.87, 47.21 -3.61, 56.79 -0.89 M33.11 -8.91 C41.22 -6.67, 50 -4.02, 56.79 -0.89" stroke="#1e1e1e" stroke-width="1" fill="none"></path></g></g><mask></mask><g stroke-linecap="round" transform="translate(550 370) rotate(0 110 100)"><path d="M32 0 C91.69 1.42, 149.37 -0.25, 188 0 C207.75 -0.95, 217.14 13.79, 220 32 C218.02 77.37, 221.36 123.04, 220 168 C219.26 186.89, 212.33 199.6, 188 200 C146.87 204.45, 102.69 205.06, 32 200 C11.29 198.13, -1.37 189.67, 0 168 C-0.46 117.76, 4.21 67.14, 0 32 C-2.63 8.93, 9.06 -1.36, 32 0" stroke="none" stroke-width="0" fill="#a5d8ff"></path><path d="M32 0 C67.14 1.25, 103.42 0.11, 188 0 M32 0 C63.57 -0.66, 93.76 -1.59, 188 0 M188 0 C209.79 -1.43, 218.05 12.52, 220 32 M188 0 C207.36 -0.72, 218.49 12.6, 220 32 M220 32 C219.62 77.98, 218.09 123.43, 220 168 M220 32 C218.71 68.47, 219.28 105.77, 220 168 M220 168 C219.89 188.1, 208.07 199.87, 188 200 M220 168 C222.22 191.24, 207.09 200.78, 188 200 M188 200 C124.66 198.89, 62.26 198.86, 32 200 M188 200 C148.7 199.77, 110.5 199.4, 32 200 M32 200 C9.02 198.49, -0.92 187.55, 0 168 M32 200 C10.06 199.79, -0.06 187.05, 0 168 M0 168 C-0.92 130.85, -3.01 90.3, 0 32 M0 168 C0.93 116.15, 0.74 62.92, 0 32 M0 32 C0.85 11.02, 11.05 1.99, 32 0 M0 32 C-0.67 12.39, 11.88 2.26, 32 0" stroke="#1971c2" stroke-width="1" fill="none"></path></g><g stroke-linecap="round" transform="translate(550 610) rotate(0 110 30)"><path d="M15 0 C70.72 -0.33, 126.37 -1.86, 205 0 M205 0 C215.29 1.79, 221.62 4.98, 220 15 M220 15 C220.66 27.5, 218.92 36.65, 220 45 M220 45 C221.48 56.18, 215.67 60.81, 205 60 M205 60 C153.84 58.93, 102.75 58.08, 15 60 M15 60 C6.39 60.82, 1.89 54.84, 0 45 M0 45 C-0.95 34.62, -0.86 27.35, 0 15 M0 15 C1.41 6.42, 4.38 0.98, 15 0" stroke="#1e1e1e" stroke-width="1.5" fill="none" stroke-dasharray="8 9"></path></g><g transform="translate(599.6000747680664 627.5) rotate(0 60.399925231933594 12.5)"><text x="60.399925231933594" y="17.52" font-family="Virgil, Segoe UI Emoji" font-size="20px" fill="#1e1e1e" text-anchor="middle" style="white-space: pre;" direction="ltr" dominant-baseline="alphabetic">Visualization</text></g><g stroke-linecap="round"><g transform="translate(650 311) rotate(0 0 29)"><path d="M0.51 0.21 C0.67 9.78, 0.31 48.68, 0.32 58.42 M-0.69 -0.72 C-0.59 9, -0.59 46.96, -0.46 56.52" stroke="#1e1e1e" stroke-width="1" fill="none"></path></g><g transform="translate(650 311) rotate(0 0 29)"><path d="M-9.15 33.08 C-6.49 39.27, -4.03 45.34, -0.46 56.52 M-9.15 33.08 C-4.93 40.62, -2.56 49.93, -0.46 56.52" stroke="#1e1e1e" stroke-width="1" fill="none"></path></g><g transform="translate(650 311) rotate(0 0 29)"><path d="M7.95 32.98 C6.46 39.27, 4.76 45.37, -0.46 56.52 M7.95 32.98 C6.13 40.47, 2.46 49.81, -0.46 56.52" stroke="#1e1e1e" stroke-width="1" fill="none"></path></g></g><mask></mask><g stroke-linecap="round" transform="translate(590 430) rotate(0 70 42.5)"><path d="M0.92 -1.2 L140.66 -1.59 L140.76 83.82 L-1.28 83.01" stroke="none" stroke-width="0" fill="#ffec99"></path><path d="M0 0 C54.63 -1.98, 110.84 1.33, 140 0 M0 0 C45.5 0.4, 92.18 0.28, 140 0 M140 0 C140.51 20.25, 140.15 39.34, 140 85 M140 0 C140.38 26.41, 140.12 53.08, 140 85 M140 85 C96.58 84.12, 57.59 84.48, 0 85 M140 85 C93.97 85.4, 47.39 84.87, 0 85 M0 85 C-0.95 64.35, 0.52 45.56, 0 0 M0 85 C-0.39 62.24, -0.34 39.99, 0 0" stroke="#f08c00" stroke-width="1" fill="none"></path></g><g transform="translate(603.671875 452.5) rotate(0 56.328125 20)"><text x="56.328125" y="14.016" font-family="Virgil, Segoe UI Emoji" font-size="16px" fill="#f08c00" text-anchor="middle" style="white-space: pre;" direction="ltr" dominant-baseline="alphabetic">Graph </text><text x="56.328125" y="34.016" font-family="Virgil, Segoe UI Emoji" font-size="16px" fill="#f08c00" text-anchor="middle" style="white-space: pre;" direction="ltr" dominant-baseline="alphabetic">representation</text></g>
</svg>
