<svg version="1.1" xmlns="http://www.w3.org/2000/svg" viewBox="0 0 1620 340" width="1620" height="340">
    <!-- svg-source:excalidraw -->

    <defs>
        <style class="style-fonts">
            @font-face {
            font-family: "Virgil";
            src: url("https://excalidraw.com/Virgil.woff2");
            }
            @font-face {
            font-family: "Cascadia";
            src: url("https://excalidraw.com/Cascadia.woff2");
            }
            @font-face {
            font-family: "Assistant";
            src: url("https://excalidraw.com/Assistant-Regular.woff2");
            }
        </style>

    </defs>
    <rect x="0" y="0" width="1620" height="340" fill="#ffffff"></rect><g stroke-linecap="round" transform="translate(670 90) rotate(0 140 120)"><path d="M32 0 C101.83 -3.14, 176.05 0.48, 248 0 C269.01 -3.28, 280.15 8.65, 280 32 C286.3 85.43, 286.14 142.1, 280 208 C277.1 225.82, 267.74 237.84, 248 240 C194.83 239.93, 146.35 241.69, 32 240 C11.48 239.43, 3.42 232.73, 0 208 C-3.2 150.6, 0.28 88.8, 0 32 C-3.4 8.25, 13.99 -1.56, 32 0" stroke="none" stroke-width="0" fill="#a5d8ff"></path><path d="M32 0 C93.76 1.45, 157.08 -0.22, 248 0 M32 0 C79.18 -0.8, 125.67 0.19, 248 0 M248 0 C268.01 0.15, 281.77 11.9, 280 32 M248 0 C270.61 -1.88, 279.88 10.86, 280 32 M280 32 C281.85 93.74, 279.49 154.09, 280 208 M280 32 C280.45 86.93, 280.65 143.78, 280 208 M280 208 C278.2 230.4, 268.31 241.67, 248 240 M280 208 C282.14 230.57, 269.99 242.14, 248 240 M248 240 C188.71 240.21, 130.37 238.68, 32 240 M248 240 C187.68 241.49, 128.55 240.33, 32 240 M32 240 C8.76 238.82, -0.78 227.82, 0 208 M32 240 C11.98 240.41, 1.31 229.32, 0 208 M0 208 C0.58 172.35, 0.96 136.4, 0 32 M0 208 C-0.88 162.7, -0.02 116.04, 0 32 M0 32 C-0.96 10.14, 10.12 1.96, 32 0 M0 32 C-0.91 10.34, 10.8 0.3, 32 0" stroke="#1971c2" stroke-width="1" fill="none"></path></g><g stroke-linecap="round" transform="translate(310 90) rotate(0 140 120)"><path d="M32 0 C109.49 -1.98, 187.2 -2.15, 248 0 C271.37 1.95, 281.43 13.51, 280 32 C277.25 103.07, 276.63 169.17, 280 208 C283.16 232.85, 268.64 236.67, 248 240 C193.87 240.65, 139.35 240.12, 32 240 C9.41 238.37, 1.73 229.08, 0 208 C-3.88 145.07, -0.9 72.85, 0 32 C-0.2 7.73, 11.67 -2.42, 32 0" stroke="none" stroke-width="0" fill="#a5d8ff"></path><path d="M32 0 C92.95 2.58, 153.61 -0.44, 248 0 M32 0 C77.21 -1.25, 123.08 -0.86, 248 0 M248 0 C268.6 -0.36, 280.84 9.28, 280 32 M248 0 C267.18 -0.37, 281.76 10.37, 280 32 M280 32 C280.62 67.53, 279.22 102.43, 280 208 M280 32 C280.08 74.8, 281.03 118.78, 280 208 M280 208 C281.57 227.93, 270.27 238.14, 248 240 M280 208 C280.32 227.75, 268.81 239.92, 248 240 M248 240 C202.74 240.82, 154.04 241.98, 32 240 M248 240 C177.45 239.99, 105.02 240.75, 32 240 M32 240 C11.49 240.19, 0.12 229.22, 0 208 M32 240 C12.38 238.88, -0.66 228.7, 0 208 M0 208 C-0.61 162.33, -1.18 118.21, 0 32 M0 208 C-2.41 158.38, -0.79 108.08, 0 32 M0 32 C-1.14 10.51, 10.16 0.49, 32 0 M0 32 C1.32 10.35, 12.8 0.43, 32 0" stroke="#1971c2" stroke-width="1" fill="none"></path></g><g stroke-linecap="round" transform="translate(350 130) rotate(0 100 30)"><path d="M1.27 0.27 L199.82 -0.9 L201.76 59.54 L0.7 59.37" stroke="none" stroke-width="0" fill="#ffec99"></path><path d="M0 0 C47.59 0.07, 97.13 1.94, 200 0 M0 0 C68.59 -0.04, 136.56 -1.17, 200 0 M200 0 C199.26 19.1, 199.41 39.42, 200 60 M200 0 C200.26 22.21, 199.41 45.61, 200 60 M200 60 C159.23 60.88, 116.24 59.11, 0 60 M200 60 C129.37 60.69, 58.38 59.87, 0 60 M0 60 C-1.13 44.45, -1.49 24.46, 0 0 M0 60 C-0.1 37.06, -0.08 13.33, 0 0" stroke="#f08c00" stroke-width="1" fill="none"></path></g><g transform="translate(375.36009216308594 147.5) rotate(0 74.63990783691406 12.5)"><text x="74.63990783691406" y="17.52" font-family="Virgil, Segoe UI Emoji" font-size="20px" fill="#f08c00" text-anchor="middle" style="white-space: pre;" direction="ltr" dominant-baseline="alphabetic">Static analysis</text></g><g stroke-linecap="round" transform="translate(350 230) rotate(0 100 30)"><path d="M1 -0.89 L199.52 1.97 L201.17 60.96 L-0.48 60.94" stroke="none" stroke-width="0" fill="#ffec99"></path><path d="M0 0 C46.81 -0.79, 91.55 -2.1, 200 0 M0 0 C72.39 -0.23, 144.43 0.04, 200 0 M200 0 C198.13 11.06, 198.85 25.76, 200 60 M200 0 C199.32 16.79, 200.18 31.09, 200 60 M200 60 C146.77 60.52, 91.85 60.61, 0 60 M200 60 C133.84 61.13, 65.59 60.79, 0 60 M0 60 C-0.9 47.98, -0.1 35.42, 0 0 M0 60 C0.26 46.79, 0.42 32.81, 0 0" stroke="#f08c00" stroke-width="1" fill="none"></path></g><g transform="translate(385.47007751464844 235) rotate(0 64.52992248535156 25)"><text x="64.52992248535156" y="17.52" font-family="Virgil, Segoe UI Emoji" font-size="20px" fill="#f08c00" text-anchor="middle" style="white-space: pre;" direction="ltr" dominant-baseline="alphabetic">Evolutionary </text><text x="64.52992248535156" y="42.519999999999996" font-family="Virgil, Segoe UI Emoji" font-size="20px" fill="#f08c00" text-anchor="middle" style="white-space: pre;" direction="ltr" dominant-baseline="alphabetic">analysis</text></g><g stroke-linecap="round" transform="translate(10 170) rotate(0 100 40)"><path d="M20 0 C76.93 4.86, 141.45 2.82, 180 0 C190.14 2.91, 200.69 10.11, 200 20 C202.68 36.34, 200.81 52.86, 200 60 C200.29 76.09, 196.01 76.69, 180 80 C118.18 79.62, 55.83 81.58, 20 80 C7.18 82.33, -1.05 70.25, 0 60 C-1.95 54.71, -1.72 42.81, 0 20 C-0.23 5.58, 9.4 -0.91, 20 0" stroke="none" stroke-width="0" fill="#b2f2bb"></path><path d="M20 0 C54.74 -0.54, 87.15 2.49, 180 0 M20 0 C66.88 -0.9, 115.62 0.67, 180 0 M180 0 C193.26 1.87, 200.09 5.13, 200 20 M180 0 C194.82 2.09, 198.07 5.57, 200 20 M200 20 C200.46 29.45, 199.12 38.42, 200 60 M200 20 C200.72 29, 200.64 36.8, 200 60 M200 60 C199.2 74.57, 192.75 81.6, 180 80 M200 60 C200.17 73.2, 192.34 79.71, 180 80 M180 80 C130.54 81.33, 83.75 78.01, 20 80 M180 80 C146.27 80.01, 111.11 80.8, 20 80 M20 80 C8.44 78.08, 0.51 74.64, 0 60 M20 80 C5.37 80.54, 0.67 74.22, 0 60 M0 60 C0.73 48.1, 0.57 35, 0 20 M0 60 C0.72 48.04, 0.48 34.76, 0 20 M0 20 C-1.3 6.57, 6.27 -0.63, 20 0 M0 20 C-0.1 5.1, 7.06 1.64, 20 0" stroke="#2f9e44" stroke-width="1" fill="none"></path></g><g transform="translate(46.19007110595703 185) rotate(0 63.80992889404297 25)"><text x="63.80992889404297" y="17.52" font-family="Virgil, Segoe UI Emoji" font-size="20px" fill="#2f9e44" text-anchor="middle" style="white-space: pre;" direction="ltr" dominant-baseline="alphabetic">Source code </text><text x="63.80992889404297" y="42.519999999999996" font-family="Virgil, Segoe UI Emoji" font-size="20px" fill="#2f9e44" text-anchor="middle" style="white-space: pre;" direction="ltr" dominant-baseline="alphabetic">repository</text></g><g stroke-linecap="round" transform="translate(310 10) rotate(0 140 30)"><path d="M15 0 C89.03 -0.72, 162.69 -0.19, 265 0 M265 0 C276.22 1.16, 281.43 4.71, 280 15 M280 15 C281.06 25.51, 280.73 35.44, 280 45 M280 45 C281.8 54.84, 276.3 58.61, 265 60 M265 60 C174.48 61.54, 80.77 58.44, 15 60 M15 60 C3.98 60.24, 0.59 54.8, 0 45 M0 45 C-0.6 35.44, 1.06 27.55, 0 15 M0 15 C1.55 6.43, 6.19 -0.89, 15 0" stroke="#1e1e1e" stroke-width="1.5" fill="none" stroke-dasharray="8 9"></path></g><g transform="translate(338.3501205444336 27.5) rotate(0 111.6498794555664 12.5)"><text x="111.6498794555664" y="17.52" font-family="Virgil, Segoe UI Emoji" font-size="20px" fill="#1e1e1e" text-anchor="middle" style="white-space: pre;" direction="ltr" dominant-baseline="alphabetic">Information extraction</text></g><g stroke-linecap="round" transform="translate(670 10) rotate(0 140 30)"><path d="M15 0 C66.27 0.7, 118.49 2.23, 265 0 M265 0 C275.6 1.04, 278.88 6.02, 280 15 M280 15 C279.43 23.01, 280.85 31.94, 280 45 M280 45 C278.09 54.79, 273.6 58.91, 265 60 M265 60 C184.45 60.99, 102.42 60.44, 15 60 M15 60 C6.72 61.76, -1.4 53.31, 0 45 M0 45 C0.61 35.99, 1.28 23.37, 0 15 M0 15 C-0.43 6.1, 3.75 -0.97, 15 0" stroke="#1e1e1e" stroke-width="1.5" fill="none" stroke-dasharray="8 9"></path></g><g transform="translate(737.1100845336914 27.5) rotate(0 72.8899154663086 12.5)"><text x="72.8899154663086" y="17.52" font-family="Virgil, Segoe UI Emoji" font-size="20px" fill="#1e1e1e" text-anchor="middle" style="white-space: pre;" direction="ltr" dominant-baseline="alphabetic">Representation</text></g><g stroke-linecap="round"><g transform="translate(211 210) rotate(0 49 0)"><path d="M0.33 0.39 C16.65 0.4, 82.81 1.36, 99.05 1.12 M-0.96 -0.46 C15.19 -0.24, 82.35 -0.45, 98.66 -0.42" stroke="#1e1e1e" stroke-width="1" fill="none"></path></g><g transform="translate(211 210) rotate(0 49 0)"><path d="M75.17 8.15 C85.02 6.45, 95.51 0.92, 98.66 -0.42 M75.17 8.15 C79.77 5.88, 84.96 3.92, 98.66 -0.42" stroke="#1e1e1e" stroke-width="1" fill="none"></path></g><g transform="translate(211 210) rotate(0 49 0)"><path d="M75.16 -8.95 C85.16 -3.89, 95.66 -2.66, 98.66 -0.42 M75.16 -8.95 C79.68 -7.61, 84.88 -5.96, 98.66 -0.42" stroke="#1e1e1e" stroke-width="1" fill="none"></path></g></g><mask></mask><g stroke-linecap="round" transform="translate(710 170) rotate(0 100 30)"><path d="M-1.12 -1.85 L199.5 1.95 L201.64 61.01 L-0.49 60.96" stroke="none" stroke-width="0" fill="#ffec99"></path><path d="M0 0 C39.96 0.45, 81.49 -0.39, 200 0 M0 0 C41.75 0.38, 84.8 0.27, 200 0 M200 0 C198.87 14.15, 200.72 30.96, 200 60 M200 0 C199.56 12.95, 201.02 24.25, 200 60 M200 60 C142.37 60.47, 88.52 62.97, 0 60 M200 60 C129.23 58.68, 58.91 57.86, 0 60 M0 60 C0.7 37.7, -1.62 18.34, 0 0 M0 60 C0.37 37.58, -0.24 13.27, 0 0" stroke="#f08c00" stroke-width="1" fill="none"></path></g><g transform="translate(718.6401062011719 175) rotate(0 91.35989379882812 25)"><text x="91.35989379882812" y="17.52" font-family="Virgil, Segoe UI Emoji" font-size="20px" fill="#f08c00" text-anchor="middle" style="white-space: pre;" direction="ltr" dominant-baseline="alphabetic">Weighted directed </text><text x="91.35989379882812" y="42.519999999999996" font-family="Virgil, Segoe UI Emoji" font-size="20px" fill="#f08c00" text-anchor="middle" style="white-space: pre;" direction="ltr" dominant-baseline="alphabetic">graph</text></g><g stroke-linecap="round" transform="translate(1030 90) rotate(0 140 120)"><path d="M32 0 C82.73 1.57, 133.03 -2.23, 248 0 C272 1.77, 276.76 13.54, 280 32 C281.76 86.33, 280.95 137.09, 280 208 C283.04 230.04, 269.38 242, 248 240 C182.66 245.78, 109.62 239.98, 32 240 C8.47 241.33, 1.26 227.08, 0 208 C3.06 162.23, 1.61 121, 0 32 C-1.95 7.82, 7.5 2.28, 32 0" stroke="none" stroke-width="0" fill="#a5d8ff"></path><path d="M32 0 C109.81 1.35, 185.86 2.22, 248 0 M32 0 C107.12 -1.2, 182.04 0.36, 248 0 M248 0 C271.12 1.18, 279.92 8.78, 280 32 M248 0 C268.24 -1.34, 281.98 9.75, 280 32 M280 32 C281.73 72.01, 283.11 108.41, 280 208 M280 32 C278.57 66.77, 279.29 103.05, 280 208 M280 208 C281.64 227.37, 267.53 238.71, 248 240 M280 208 C282.06 230.77, 268.15 241.2, 248 240 M248 240 C169.58 240.55, 92.84 240.51, 32 240 M248 240 C170.1 240.26, 90.46 241.69, 32 240 M32 240 C9.05 238.92, -0.67 228.73, 0 208 M32 240 C10.72 239.61, -2.27 228.91, 0 208 M0 208 C-1.51 150.38, 0.02 88.76, 0 32 M0 208 C-1.42 149.69, 0.1 90.38, 0 32 M0 32 C-1.12 11.63, 11.09 -1.41, 32 0 M0 32 C-2.18 11.56, 9.98 1.1, 32 0" stroke="#1971c2" stroke-width="1" fill="none"></path></g><g stroke-linecap="round" transform="translate(1030 10) rotate(0 140 30)"><path d="M15 0 C66.98 0.94, 116.63 -0.08, 265 0 M265 0 C275.44 -0.29, 278.21 3.96, 280 15 M280 15 C280.19 24.77, 279.32 37.15, 280 45 M280 45 C281.72 54.2, 273.4 61.67, 265 60 M265 60 C210.25 60.36, 151.2 60.85, 15 60 M15 60 C5.24 58.05, -1.29 54.5, 0 45 M0 45 C-2.05 34.06, 1.55 26.93, 0 15 M0 15 C-1.03 6.04, 6.17 -0.93, 15 0" stroke="#1e1e1e" stroke-width="1.5" fill="none" stroke-dasharray="8 9"></path></g><g transform="translate(1103.7000732421875 27.5) rotate(0 66.2999267578125 12.5)"><text x="66.2999267578125" y="17.52" font-family="Virgil, Segoe UI Emoji" font-size="20px" fill="#1e1e1e" text-anchor="middle" style="white-space: pre;" direction="ltr" dominant-baseline="alphabetic">Decomposition</text></g><g stroke-linecap="round" transform="translate(1070 170) rotate(0 100 30)"><path d="M0.05 -0.34 L198.03 -0.37 L200.68 59.82 L0.33 58.33" stroke="none" stroke-width="0" fill="#ffec99"></path><path d="M0 0 C64.62 0.48, 126.85 -0.19, 200 0 M0 0 C77.66 -1.91, 154.95 -1.58, 200 0 M200 0 C201.43 21.64, 200.03 47.56, 200 60 M200 0 C199.4 23.05, 198.69 45.2, 200 60 M200 60 C143.28 59.85, 88.94 63.09, 0 60 M200 60 C128 60.52, 54.83 60.44, 0 60 M0 60 C1.35 39.93, 1 19.8, 0 0 M0 60 C-0.39 45.62, 0.09 32.02, 0 0" stroke="#f08c00" stroke-width="1" fill="none"></path></g><g transform="translate(1117.5300598144531 175) rotate(0 52.469940185546875 25)"><text x="52.469940185546875" y="17.52" font-family="Virgil, Segoe UI Emoji" font-size="20px" fill="#f08c00" text-anchor="middle" style="white-space: pre;" direction="ltr" dominant-baseline="alphabetic">Clustering </text><text x="52.469940185546875" y="42.519999999999996" font-family="Virgil, Segoe UI Emoji" font-size="20px" fill="#f08c00" text-anchor="middle" style="white-space: pre;" direction="ltr" dominant-baseline="alphabetic">algorithm</text></g><g stroke-linecap="round" transform="translate(1410 170) rotate(0 100 40)"><path d="M20 0 C60.53 0.75, 97.18 0.51, 180 0 C194.27 -1.74, 203.46 5.02, 200 20 C197.84 29.68, 198.24 41.1, 200 60 C199.71 76.27, 195.19 82.67, 180 80 C130 77.75, 87.79 83.42, 20 80 C6.83 79.5, 1.32 75.8, 0 60 C-0.89 44.25, 4.1 34.34, 0 20 C-1.14 3.67, 6.18 -1.65, 20 0" stroke="none" stroke-width="0" fill="#b2f2bb"></path><path d="M20 0 C55.62 -1.17, 91.2 -2.04, 180 0 M20 0 C74.4 -0.46, 130.8 -0.11, 180 0 M180 0 C195.03 0.11, 200.32 5.46, 200 20 M180 0 C193.11 -1.22, 199.75 6.36, 200 20 M200 20 C198.62 35.94, 198.58 48.12, 200 60 M200 20 C200.68 33.42, 201.26 47.73, 200 60 M200 60 C201.88 72.79, 192.31 80.21, 180 80 M200 60 C201.84 72.6, 195.54 80.09, 180 80 M180 80 C124.77 81.89, 71.58 81.57, 20 80 M180 80 C129.45 79.93, 76.42 81.04, 20 80 M20 80 C6.45 78.07, -1.06 71.84, 0 60 M20 80 C5.69 81.08, -2.19 72.75, 0 60 M0 60 C-1.64 46.14, 0.11 29.77, 0 20 M0 60 C-0.5 48.97, 0.31 39.14, 0 20 M0 20 C0.39 5.38, 6.17 -1.35, 20 0 M0 20 C1.17 6.47, 8 -1.89, 20 0" stroke="#2f9e44" stroke-width="1" fill="none"></path></g><g transform="translate(1448.0800704956055 185) rotate(0 61.91992950439453 25)"><text x="61.91992950439453" y="17.52" font-family="Virgil, Segoe UI Emoji" font-size="20px" fill="#2f9e44" text-anchor="middle" style="white-space: pre;" direction="ltr" dominant-baseline="alphabetic">Proposed </text><text x="61.91992950439453" y="42.519999999999996" font-family="Virgil, Segoe UI Emoji" font-size="20px" fill="#2f9e44" text-anchor="middle" style="white-space: pre;" direction="ltr" dominant-baseline="alphabetic">microservices</text></g><g stroke-linecap="round"><g transform="translate(1310 210) rotate(0 50 0)"><path d="M-1 -0.16 C15.44 -0.11, 82.46 0.09, 99.45 -0.04 M0.68 -1.29 C16.84 -1, 81.56 1.27, 98.21 1.47" stroke="#1e1e1e" stroke-width="1" fill="none"></path></g><g transform="translate(1310 210) rotate(0 50 0)"><path d="M74.52 9.44 C82.96 5.8, 91.84 5.32, 98.21 1.47 M74.52 9.44 C80.68 6.77, 84.54 6.64, 98.21 1.47" stroke="#1e1e1e" stroke-width="1" fill="none"></path></g><g transform="translate(1310 210) rotate(0 50 0)"><path d="M74.94 -7.66 C83.17 -5.04, 91.9 0.75, 98.21 1.47 M74.94 -7.66 C80.96 -6.54, 84.73 -2.88, 98.21 1.47" stroke="#1e1e1e" stroke-width="1" fill="none"></path></g></g><mask></mask><g stroke-linecap="round"><g transform="translate(590 210) rotate(0 40 0)"><path d="M0.92 -0.8 C14.26 -0.81, 67.06 0.85, 80.3 1.03 M-0.05 1.39 C13.13 1.59, 66.2 -0.61, 79.51 -0.55" stroke="#1e1e1e" stroke-width="1" fill="none"></path></g><g transform="translate(590 210) rotate(0 40 0)"><path d="M56.2 8.49 C62.3 5.89, 72.88 3.06, 79.51 -0.55 M56.2 8.49 C62.89 6.46, 70.43 2.19, 79.51 -0.55" stroke="#1e1e1e" stroke-width="1" fill="none"></path></g><g transform="translate(590 210) rotate(0 40 0)"><path d="M55.84 -8.61 C62.21 -5.7, 72.9 -3.01, 79.51 -0.55 M55.84 -8.61 C62.53 -5.1, 70.19 -3.84, 79.51 -0.55" stroke="#1e1e1e" stroke-width="1" fill="none"></path></g></g><mask></mask><g stroke-linecap="round"><g transform="translate(950 210) rotate(0 40 0)"><path d="M-0.45 0.88 C12.69 0.67, 65.85 -0.13, 79.24 -0.28 M1.51 0.3 C15.01 0.19, 68.63 0.94, 81.55 1.11" stroke="#1e1e1e" stroke-width="1" fill="none"></path></g><g transform="translate(950 210) rotate(0 40 0)"><path d="M57.94 9.35 C67.16 5.44, 73.03 3.77, 81.55 1.11 M57.94 9.35 C64.63 7.01, 72.8 5.47, 81.55 1.11" stroke="#1e1e1e" stroke-width="1" fill="none"></path></g><g transform="translate(950 210) rotate(0 40 0)"><path d="M58.17 -7.75 C67.45 -6, 73.25 -2.02, 81.55 1.11 M58.17 -7.75 C64.62 -4.95, 72.72 -1.36, 81.55 1.11" stroke="#1e1e1e" stroke-width="1" fill="none"></path></g></g><mask></mask>
</svg>
