<?xml version="1.0" encoding="UTF-8" standalone="no"?>
<!DOCTYPE svg PUBLIC "-//W3C//DTD SVG 1.1//EN"
 "http://www.w3.org/Graphics/SVG/1.1/DTD/svg11.dtd">
<!-- Generated by graphviz version 10.0.1 (0)
 -->
<!-- Pages: 1 -->
<svg width="357pt" height="495pt"
 viewBox="0.00 0.00 357.00 494.91" xmlns="http://www.w3.org/2000/svg" xmlns:xlink="http://www.w3.org/1999/xlink">
<g id="graph0" class="graph" transform="scale(1 1) rotate(0) translate(4 490.91)">
<polygon fill="white" stroke="none" points="-4,4 -4,-490.91 353,-490.91 353,4 -4,4"/>
<g id="clust1" class="cluster">
<title>A</title>
<polygon fill="none" stroke="lightblue" points="8,-145.88 8,-478.91 214,-478.91 214,-145.88 8,-145.88"/>
<text text-anchor="middle" x="111" y="-461.61" font-family="Times,serif" font-size="14.00">A</text>
</g>
<g id="clust2" class="cluster">
<title>B</title>
<polygon fill="none" stroke="lightblue" points="227,-146.4 227,-341.04 341,-341.04 341,-146.4 227,-146.4"/>
<text text-anchor="middle" x="284" y="-323.74" font-family="Times,serif" font-size="14.00">B</text>
</g>
<g id="clust3" class="cluster">
<title>C</title>
<polygon fill="none" stroke="lightblue" points="100,-8 100,-110.63 152,-110.63 152,-8 100,-8"/>
<text text-anchor="middle" x="126" y="-93.33" font-family="Times,serif" font-size="14.00">C</text>
</g>
<!-- A -->
<g id="node1" class="node">
<title>A</title>
<ellipse fill="lightblue" stroke="black" cx="188" cy="-402.35" rx="18.06" ry="18.06"/>
<text text-anchor="middle" x="188" y="-397.67" font-family="Times,serif" font-size="14.00">A</text>
</g>
<!-- B -->
<g id="node2" class="node">
<title>B</title>
<ellipse fill="lightblue" stroke="black" cx="56" cy="-263.95" rx="18.59" ry="18.59"/>
<text text-anchor="middle" x="56" y="-259.27" font-family="Times,serif" font-size="14.00">B</text>
</g>
<!-- A&#45;&gt;B -->
<g id="edge1" class="edge">
<title>A&#45;&gt;B</title>
<path fill="none" stroke="black" d="M169.72,-399.94C132.81,-396.69 51.46,-387.26 34.75,-366.29 17.44,-344.56 28.77,-312.14 40.47,-289.85"/>
<polygon fill="black" stroke="black" points="43.36,-291.86 45.2,-281.43 37.25,-288.43 43.36,-291.86"/>
<text text-anchor="middle" x="75.12" y="-352.99" font-family="Times,serif" font-size="14.00">weight: 3.0</text>
</g>
<!-- D -->
<g id="node3" class="node">
<title>D</title>
<ellipse fill="lightblue" stroke="black" cx="126" cy="-172.99" rx="19.12" ry="19.12"/>
<text text-anchor="middle" x="126" y="-168.32" font-family="Times,serif" font-size="14.00">D</text>
</g>
<!-- A&#45;&gt;D -->
<g id="edge3" class="edge">
<title>A&#45;&gt;D</title>
<path fill="none" stroke="black" d="M197.44,-386.83C203.63,-375.3 209.05,-359.44 200,-349.04 183.14,-329.65 160.56,-359.55 142.75,-341.04 124.46,-322.02 123.66,-246.35 124.76,-203.67"/>
<polygon fill="black" stroke="black" points="128.26,-203.95 125.07,-193.84 121.26,-203.73 128.26,-203.95"/>
<text text-anchor="middle" x="183.12" y="-259.27" font-family="Times,serif" font-size="14.00">weight: 5.0</text>
</g>
<!-- C -->
<g id="node4" class="node">
<title>C</title>
<ellipse fill="lightblue" stroke="black" cx="254" cy="-263.95" rx="18.59" ry="18.59"/>
<text text-anchor="middle" x="254" y="-259.27" font-family="Times,serif" font-size="14.00">C</text>
</g>
<!-- A&#45;&gt;C -->
<g id="edge2" class="edge">
<title>A&#45;&gt;C</title>
<path fill="none" stroke="black" d="M197.71,-386.97C201.73,-380.74 206.31,-373.28 210,-366.29 222.83,-341.95 235.09,-313.07 243.4,-292.38"/>
<polygon fill="black" stroke="black" points="246.6,-293.8 247.03,-283.21 240.09,-291.22 246.6,-293.8"/>
<text text-anchor="middle" x="259.12" y="-352.99" font-family="Times,serif" font-size="14.00">weight: 1.0</text>
</g>
<!-- B&#45;&gt;D -->
<g id="edge5" class="edge">
<title>B&#45;&gt;D</title>
<path fill="none" stroke="black" d="M45.71,-248.5C39.09,-237.28 33.05,-221.73 40.75,-210.11 52.94,-191.71 76.57,-182.66 95.87,-178.22"/>
<polygon fill="black" stroke="black" points="96.27,-181.71 105.41,-176.35 94.92,-174.84 96.27,-181.71"/>
<text text-anchor="middle" x="81.12" y="-214.06" font-family="Times,serif" font-size="14.00">weight: 4.0</text>
</g>
<!-- B&#45;&gt;C -->
<g id="edge4" class="edge">
<title>B&#45;&gt;C</title>
<path fill="none" stroke="black" d="M61.51,-282.11C68.23,-300.66 81.55,-328.46 104,-340.92 148.3,-365.5 175.25,-368.11 218,-340.92 234.28,-330.56 243.32,-310.69 248.27,-293.73"/>
<polygon fill="black" stroke="black" points="251.66,-294.63 250.71,-284.08 244.87,-292.91 251.66,-294.63"/>
<text text-anchor="middle" x="159" y="-352.99" font-family="Times,serif" font-size="14.00">weight: 1.0</text>
</g>
<!-- F -->
<g id="node6" class="node">
<title>F</title>
<ellipse fill="lightblue" stroke="black" cx="126" cy="-34.06" rx="18.06" ry="18.06"/>
<text text-anchor="middle" x="126" y="-29.39" font-family="Times,serif" font-size="14.00">F</text>
</g>
<!-- D&#45;&gt;F -->
<g id="edge8" class="edge">
<title>D&#45;&gt;F</title>
<path fill="none" stroke="black" d="M126,-153.52C126,-130.48 126,-90.83 126,-63.8"/>
<polygon fill="black" stroke="black" points="129.5,-63.89 126,-53.89 122.5,-63.89 129.5,-63.89"/>
<text text-anchor="middle" x="166.12" y="-122.58" font-family="Times,serif" font-size="14.00">weight: 2.0</text>
</g>
<!-- C&#45;&gt;D -->
<g id="edge6" class="edge">
<title>C&#45;&gt;D</title>
<path fill="none" stroke="black" d="M237.67,-254.55C231.56,-251.52 224.52,-248.16 218,-245.36 196.97,-236.32 188.37,-240.67 169.75,-227.36 159.11,-219.75 149.6,-208.94 142.18,-199.03"/>
<polygon fill="black" stroke="black" points="145.25,-197.31 136.61,-191.17 139.54,-201.35 145.25,-197.31"/>
<text text-anchor="middle" x="210.12" y="-214.06" font-family="Times,serif" font-size="14.00">weight: 1.0</text>
</g>
<!-- E -->
<g id="node5" class="node">
<title>E</title>
<ellipse fill="lightblue" stroke="black" cx="254" cy="-172.99" rx="18.59" ry="18.59"/>
<text text-anchor="middle" x="254" y="-168.32" font-family="Times,serif" font-size="14.00">E</text>
</g>
<!-- C&#45;&gt;E -->
<g id="edge7" class="edge">
<title>C&#45;&gt;E</title>
<path fill="none" stroke="black" d="M254,-244.94C254,-233.01 254,-217.07 254,-203.33"/>
<polygon fill="black" stroke="black" points="257.5,-203.48 254,-193.48 250.5,-203.48 257.5,-203.48"/>
<text text-anchor="middle" x="294.12" y="-214.06" font-family="Times,serif" font-size="14.00">weight: 5.0</text>
</g>
</g>
</svg>
