<?xml version="1.0" encoding="UTF-8" standalone="no"?>
<!DOCTYPE svg PUBLIC "-//W3C//DTD SVG 1.1//EN"
 "http://www.w3.org/Graphics/SVG/1.1/DTD/svg11.dtd">
<!-- Generated by graphviz version 10.0.1 (0)
 -->
<!-- Pages: 1 -->
<svg width="829pt" height="876pt"
 viewBox="0.00 0.00 829.27 875.98" xmlns="http://www.w3.org/2000/svg" xmlns:xlink="http://www.w3.org/1999/xlink">
<g id="graph0" class="graph" transform="scale(1 1) rotate(0) translate(4 871.98)">
<polygon fill="white" stroke="none" points="-4,4 -4,-871.98 825.27,-871.98 825.27,4 -4,4"/>
<!-- MOSAIK -->
<g id="node2" class="node">
<title>MOSAIK</title>
<ellipse fill="lightblue" stroke="black" cx="535.54" cy="-660.04" rx="36" ry="36"/>
<text text-anchor="middle" x="535.54" y="-655.77" font-family="Times,serif" font-size="12.00">MOSAIK</text>
</g>
<!-- MOSAIK::Commands::Identify -->
<g id="node4" class="node">
<title>MOSAIK::Commands::Identify</title>
<ellipse fill="lightblue" stroke="black" cx="359.11" cy="-376.25" rx="36" ry="36"/>
<text text-anchor="middle" x="359.11" y="-371.98" font-family="Times,serif" font-size="12.00">MOSAIK::Commands::Identify</text>
</g>
<!-- MOSAIK::Graph::Graph -->
<g id="node9" class="node">
<title>MOSAIK::Graph::Graph</title>
<ellipse fill="lightblue" stroke="black" cx="342.44" cy="-561.16" rx="36" ry="36"/>
<text text-anchor="middle" x="342.44" y="-556.89" font-family="Times,serif" font-size="12.00">MOSAIK::Graph::Graph</text>
</g>
<!-- MOSAIK::Commands::Identify&#45;&#45;MOSAIK::Graph::Graph -->
<g id="edge20" class="edge">
<title>MOSAIK::Commands::Identify&#45;&#45;MOSAIK::Graph::Graph</title>
<path fill="none" stroke="black" d="M355.86,-412.34C352.93,-444.82 348.65,-492.3 345.72,-524.85"/>
</g>
<!-- MOSAIK::Extractors::Evolution -->
<g id="node10" class="node">
<title>MOSAIK::Extractors::Evolution</title>
<ellipse fill="lightblue" stroke="black" cx="514.81" cy="-160.09" rx="36" ry="36"/>
<text text-anchor="middle" x="514.81" y="-155.82" font-family="Times,serif" font-size="12.00">MOSAIK::Extractors::Evolution</text>
</g>
<!-- MOSAIK::Commands::Identify&#45;&#45;MOSAIK::Extractors::Evolution -->
<g id="edge18" class="edge">
<title>MOSAIK::Commands::Identify&#45;&#45;MOSAIK::Extractors::Evolution</title>
<path fill="none" stroke="black" d="M380.44,-346.65C410.17,-305.37 463.77,-230.96 493.5,-189.69"/>
</g>
<!-- MOSAIK::Extractors::Structural -->
<g id="node11" class="node">
<title>MOSAIK::Extractors::Structural</title>
<ellipse fill="lightblue" stroke="black" cx="532.18" cy="-372.62" rx="36" ry="36"/>
<text text-anchor="middle" x="532.18" y="-368.35" font-family="Times,serif" font-size="12.00">MOSAIK::Extractors::Structural</text>
</g>
<!-- MOSAIK::Commands::Identify&#45;&#45;MOSAIK::Extractors::Structural -->
<g id="edge19" class="edge">
<title>MOSAIK::Commands::Identify&#45;&#45;MOSAIK::Extractors::Structural</title>
<path fill="none" stroke="black" d="M395.39,-375.49C424.93,-374.87 466.42,-374 495.95,-373.38"/>
</g>
<!-- MOSAIK::Graph::Preprocessor -->
<g id="node12" class="node">
<title>MOSAIK::Graph::Preprocessor</title>
<ellipse fill="lightblue" stroke="black" cx="411.73" cy="-153.57" rx="36" ry="36"/>
<text text-anchor="middle" x="411.73" y="-149.29" font-family="Times,serif" font-size="12.00">MOSAIK::Graph::Preprocessor</text>
</g>
<!-- MOSAIK::Commands::Identify&#45;&#45;MOSAIK::Graph::Preprocessor -->
<g id="edge21" class="edge">
<title>MOSAIK::Commands::Identify&#45;&#45;MOSAIK::Graph::Preprocessor</title>
<path fill="none" stroke="black" d="M367.45,-340.97C377.27,-299.39 393.5,-230.72 403.35,-189.06"/>
</g>
<!-- MOSAIK::CLI -->
<g id="node5" class="node">
<title>MOSAIK::CLI</title>
<ellipse fill="lightblue" stroke="black" cx="36" cy="-202.51" rx="36" ry="36"/>
<text text-anchor="middle" x="36" y="-198.24" font-family="Times,serif" font-size="12.00">MOSAIK::CLI</text>
</g>
<!-- MOSAIK::Command -->
<g id="node6" class="node">
<title>MOSAIK::Command</title>
<ellipse fill="lightblue" stroke="black" cx="121.8" cy="-394.05" rx="36" ry="36"/>
<text text-anchor="middle" x="121.8" y="-389.78" font-family="Times,serif" font-size="12.00">MOSAIK::Command</text>
</g>
<!-- MOSAIK::CLI&#45;&#45;MOSAIK::Command -->
<g id="edge3" class="edge">
<title>MOSAIK::CLI&#45;&#45;MOSAIK::Command</title>
<path fill="none" stroke="black" d="M50.75,-235.44C66.46,-270.52 91.2,-325.75 106.95,-360.91"/>
</g>
<!-- MOSAIK::Commands::Extract -->
<g id="node7" class="node">
<title>MOSAIK::Commands::Extract</title>
<ellipse fill="lightblue" stroke="black" cx="281.16" cy="-296.25" rx="36" ry="36"/>
<text text-anchor="middle" x="281.16" y="-291.98" font-family="Times,serif" font-size="12.00">MOSAIK::Commands::Extract</text>
</g>
<!-- MOSAIK::CLI&#45;&#45;MOSAIK::Commands::Extract -->
<g id="edge4" class="edge">
<title>MOSAIK::CLI&#45;&#45;MOSAIK::Commands::Extract</title>
<path fill="none" stroke="black" d="M70.09,-215.55C116.93,-233.46 200.68,-265.48 247.36,-283.33"/>
</g>
<!-- MOSAIK::Command&#45;&#45;MOSAIK::Commands::Identify -->
<g id="edge7" class="edge">
<title>MOSAIK::Command&#45;&#45;MOSAIK::Commands::Identify</title>
<path fill="none" stroke="black" d="M158.1,-391.33C202.76,-387.98 278.15,-382.32 322.82,-378.97"/>
</g>
<!-- MOSAIK::Command&#45;&#45;MOSAIK::Commands::Extract -->
<g id="edge6" class="edge">
<title>MOSAIK::Command&#45;&#45;MOSAIK::Commands::Extract</title>
<path fill="none" stroke="black" d="M152.9,-374.96C180.98,-357.73 222.08,-332.51 250.14,-315.29"/>
</g>
<!-- MOSAIK::Commands::Evaluate -->
<g id="node8" class="node">
<title>MOSAIK::Commands::Evaluate</title>
<ellipse fill="lightblue" stroke="black" cx="136.86" cy="-510.47" rx="36" ry="36"/>
<text text-anchor="middle" x="136.86" y="-506.19" font-family="Times,serif" font-size="12.00">MOSAIK::Commands::Evaluate</text>
</g>
<!-- MOSAIK::Command&#45;&#45;MOSAIK::Commands::Evaluate -->
<g id="edge5" class="edge">
<title>MOSAIK::Command&#45;&#45;MOSAIK::Commands::Evaluate</title>
<path fill="none" stroke="black" d="M126.48,-430.25C128.29,-444.27 130.37,-460.28 132.18,-474.29"/>
</g>
<!-- MOSAIK::Command&#45;&#45;MOSAIK::Graph::Graph -->
<g id="edge8" class="edge">
<title>MOSAIK::Command&#45;&#45;MOSAIK::Graph::Graph</title>
<path fill="none" stroke="black" d="M150.64,-415.9C192.93,-447.93 271.3,-507.28 313.59,-539.31"/>
</g>
<!-- MOSAIK::Commands::Extract&#45;&#45;MOSAIK::Commands::Identify -->
<g id="edge12" class="edge">
<title>MOSAIK::Commands::Extract&#45;&#45;MOSAIK::Commands::Identify</title>
<path fill="none" stroke="black" d="M306.26,-322C315.07,-331.05 324.97,-341.21 333.8,-350.27"/>
</g>
<!-- MOSAIK::Commands::Extract&#45;&#45;MOSAIK::Graph::Graph -->
<g id="edge15" class="edge">
<title>MOSAIK::Commands::Extract&#45;&#45;MOSAIK::Graph::Graph</title>
<path fill="none" stroke="black" d="M289.36,-331.7C301.11,-382.46 322.58,-475.28 334.29,-525.92"/>
</g>
<!-- MOSAIK::Commands::Extract&#45;&#45;MOSAIK::Extractors::Evolution -->
<g id="edge13" class="edge">
<title>MOSAIK::Commands::Extract&#45;&#45;MOSAIK::Extractors::Evolution</title>
<path fill="none" stroke="black" d="M312.68,-277.89C357.39,-251.83 438.78,-204.4 483.43,-178.38"/>
</g>
<!-- MOSAIK::Commands::Extract&#45;&#45;MOSAIK::Extractors::Structural -->
<g id="edge14" class="edge">
<title>MOSAIK::Commands::Extract&#45;&#45;MOSAIK::Extractors::Structural</title>
<path fill="none" stroke="black" d="M316.07,-306.87C364.02,-321.46 449.77,-347.55 497.57,-362.09"/>
</g>
<!-- MOSAIK::Commands::Extract&#45;&#45;MOSAIK::Graph::Preprocessor -->
<g id="edge16" class="edge">
<title>MOSAIK::Commands::Extract&#45;&#45;MOSAIK::Graph::Preprocessor</title>
<path fill="none" stroke="black" d="M305.72,-269.41C329.07,-243.9 363.98,-205.76 387.28,-180.29"/>
</g>
<!-- MOSAIK::Resolver -->
<g id="node13" class="node">
<title>MOSAIK::Resolver</title>
<ellipse fill="lightblue" stroke="black" cx="290.21" cy="-36" rx="36" ry="36"/>
<text text-anchor="middle" x="290.21" y="-31.73" font-family="Times,serif" font-size="12.00">MOSAIK::Resolver</text>
</g>
<!-- MOSAIK::Commands::Extract&#45;&#45;MOSAIK::Resolver -->
<g id="edge17" class="edge">
<title>MOSAIK::Commands::Extract&#45;&#45;MOSAIK::Resolver</title>
<path fill="none" stroke="black" d="M282.43,-259.79C284.16,-210.13 287.23,-121.75 288.95,-72.21"/>
</g>
<!-- MOSAIK::Commands::Evaluate&#45;&#45;MOSAIK::Commands::Identify -->
<g id="edge10" class="edge">
<title>MOSAIK::Commands::Evaluate&#45;&#45;MOSAIK::Commands::Identify</title>
<path fill="none" stroke="black" d="M167.76,-491.81C210.11,-466.24 285.72,-420.57 328.12,-394.97"/>
</g>
<!-- MOSAIK::Commands::Evaluate&#45;&#45;MOSAIK::Commands::Extract -->
<g id="edge9" class="edge">
<title>MOSAIK::Commands::Evaluate&#45;&#45;MOSAIK::Commands::Extract</title>
<path fill="none" stroke="black" d="M157.23,-480.23C184.73,-439.4 233.45,-367.08 260.9,-326.34"/>
</g>
<!-- MOSAIK::Commands::Evaluate&#45;&#45;MOSAIK::Graph::Graph -->
<g id="edge11" class="edge">
<title>MOSAIK::Commands::Evaluate&#45;&#45;MOSAIK::Graph::Graph</title>
<path fill="none" stroke="black" d="M172.2,-519.18C209.97,-528.5 269.5,-543.17 307.22,-552.48"/>
</g>
<!-- MOSAIK::Graph::Graph&#45;&#45;MOSAIK -->
<g id="edge45" class="edge">
<title>MOSAIK::Graph::Graph&#45;&#45;MOSAIK</title>
<path fill="none" stroke="black" d="M374.76,-577.71C410.41,-595.97 467.43,-625.16 503.11,-643.44"/>
</g>
<!-- MOSAIK::Graph::Vertex -->
<g id="node19" class="node">
<title>MOSAIK::Graph::Vertex</title>
<ellipse fill="lightblue" stroke="black" cx="504.31" cy="-782.39" rx="36" ry="36"/>
<text text-anchor="middle" x="504.31" y="-778.12" font-family="Times,serif" font-size="12.00">MOSAIK::Graph::Vertex</text>
</g>
<!-- MOSAIK::Graph::Graph&#45;&#45;MOSAIK::Graph::Vertex -->
<g id="edge44" class="edge">
<title>MOSAIK::Graph::Graph&#45;&#45;MOSAIK::Graph::Vertex</title>
<path fill="none" stroke="black" d="M363.94,-590.54C394.98,-632.97 452.03,-710.94 482.98,-753.25"/>
</g>
<!-- MOSAIK::Extractors::Evolution&#45;&#45;MOSAIK::Extractors::Structural -->
<g id="edge22" class="edge">
<title>MOSAIK::Extractors::Evolution&#45;&#45;MOSAIK::Extractors::Structural</title>
<path fill="none" stroke="black" d="M517.76,-196.15C520.95,-235.23 526.02,-297.24 529.22,-336.39"/>
</g>
<!-- MOSAIK::Extractors::Evolution&#45;&#45;MOSAIK::Graph::Preprocessor -->
<g id="edge23" class="edge">
<title>MOSAIK::Extractors::Evolution&#45;&#45;MOSAIK::Graph::Preprocessor</title>
<path fill="none" stroke="black" d="M478.47,-157.79C468.62,-157.17 457.95,-156.49 448.09,-155.87"/>
</g>
<!-- MOSAIK::Extractors::Evolution&#45;&#45;MOSAIK::Resolver -->
<g id="edge24" class="edge">
<title>MOSAIK::Extractors::Evolution&#45;&#45;MOSAIK::Resolver</title>
<path fill="none" stroke="black" d="M483.11,-142.58C440.42,-118.99 364.9,-77.27 322.11,-53.63"/>
</g>
<!-- MOSAIK::Extractors::Structural&#45;&#45;MOSAIK::Graph::Graph -->
<g id="edge30" class="edge">
<title>MOSAIK::Extractors::Structural&#45;&#45;MOSAIK::Graph::Graph</title>
<path fill="none" stroke="black" d="M506.59,-398.05C470.38,-434.03 404.56,-499.44 368.23,-535.54"/>
</g>
<!-- MOSAIK::Extractors::Structural&#45;&#45;MOSAIK::Graph::Preprocessor -->
<g id="edge31" class="edge">
<title>MOSAIK::Extractors::Structural&#45;&#45;MOSAIK::Graph::Preprocessor</title>
<path fill="none" stroke="black" d="M514.67,-340.77C491.83,-299.24 452.11,-227.01 429.27,-185.46"/>
</g>
<!-- MOSAIK::Extractors::Structural::Parser -->
<g id="node14" class="node">
<title>MOSAIK::Extractors::Structural::Parser</title>
<ellipse fill="lightblue" stroke="black" cx="722.69" cy="-574.09" rx="36" ry="36"/>
<text text-anchor="middle" x="722.69" y="-569.81" font-family="Times,serif" font-size="12.00">MOSAIK::Extractors::Structural::Parser</text>
</g>
<!-- MOSAIK::Extractors::Structural::Parser&#45;&#45;MOSAIK -->
<g id="edge27" class="edge">
<title>MOSAIK::Extractors::Structural::Parser&#45;&#45;MOSAIK</title>
<path fill="none" stroke="black" d="M689.66,-589.26C655.56,-604.92 602.65,-629.22 568.55,-644.88"/>
</g>
<!-- MOSAIK::Extractors::Structural::Parser&#45;&#45;MOSAIK::Extractors::Structural -->
<g id="edge26" class="edge">
<title>MOSAIK::Extractors::Structural::Parser&#45;&#45;MOSAIK::Extractors::Structural</title>
<path fill="none" stroke="black" d="M697.79,-547.75C661.28,-509.14 593.61,-437.58 557.09,-398.97"/>
</g>
<!-- MOSAIK::Extractors::Structural::Processor -->
<g id="node15" class="node">
<title>MOSAIK::Extractors::Structural::Processor</title>
<ellipse fill="lightblue" stroke="black" cx="728.69" cy="-449.17" rx="36" ry="36"/>
<text text-anchor="middle" x="728.69" y="-444.89" font-family="Times,serif" font-size="12.00">MOSAIK::Extractors::Structural::Processor</text>
</g>
<!-- MOSAIK::Extractors::Structural::Parser&#45;&#45;MOSAIK::Extractors::Structural::Processor -->
<g id="edge25" class="edge">
<title>MOSAIK::Extractors::Structural::Parser&#45;&#45;MOSAIK::Extractors::Structural::Processor</title>
<path fill="none" stroke="black" d="M724.43,-537.95C725.22,-521.38 726.16,-501.78 726.96,-485.22"/>
</g>
<!-- MOSAIK::Extractors::Structural::Processor&#45;&#45;MOSAIK -->
<g id="edge29" class="edge">
<title>MOSAIK::Extractors::Structural::Processor&#45;&#45;MOSAIK</title>
<path fill="none" stroke="black" d="M704.23,-475.87C667.18,-516.33 597.22,-592.7 560.11,-633.22"/>
</g>
<!-- MOSAIK::Extractors::Structural::Processor&#45;&#45;MOSAIK::Extractors::Structural -->
<g id="edge28" class="edge">
<title>MOSAIK::Extractors::Structural::Processor&#45;&#45;MOSAIK::Extractors::Structural</title>
<path fill="none" stroke="black" d="M694.91,-436.01C658.92,-421.99 602.26,-399.92 566.18,-385.87"/>
</g>
<!-- MOSAIK::Graph::Attributes -->
<g id="node16" class="node">
<title>MOSAIK::Graph::Attributes</title>
<ellipse fill="lightblue" stroke="black" cx="414.41" cy="-831.98" rx="36" ry="36"/>
<text text-anchor="middle" x="414.41" y="-827.7" font-family="Times,serif" font-size="12.00">MOSAIK::Graph::Attributes</text>
</g>
<!-- MOSAIK::Graph::Attributes&#45;&#45;MOSAIK -->
<g id="edge36" class="edge">
<title>MOSAIK::Graph::Attributes&#45;&#45;MOSAIK</title>
<path fill="none" stroke="black" d="M435.24,-802.42C457.42,-770.93 492.34,-721.36 514.58,-689.79"/>
</g>
<!-- MOSAIK::Graph::Attributes&#45;&#45;MOSAIK::Graph::Graph -->
<g id="edge34" class="edge">
<title>MOSAIK::Graph::Attributes&#45;&#45;MOSAIK::Graph::Graph</title>
<path fill="none" stroke="black" d="M405.08,-796.85C391.27,-744.9 365.56,-648.14 351.76,-596.23"/>
</g>
<!-- MOSAIK::Graph::Cluster -->
<g id="node17" class="node">
<title>MOSAIK::Graph::Cluster</title>
<ellipse fill="lightblue" stroke="black" cx="284.27" cy="-719.83" rx="36" ry="36"/>
<text text-anchor="middle" x="284.27" y="-715.55" font-family="Times,serif" font-size="12.00">MOSAIK::Graph::Cluster</text>
</g>
<!-- MOSAIK::Graph::Attributes&#45;&#45;MOSAIK::Graph::Cluster -->
<g id="edge32" class="edge">
<title>MOSAIK::Graph::Attributes&#45;&#45;MOSAIK::Graph::Cluster</title>
<path fill="none" stroke="black" d="M386.81,-808.19C364.73,-789.16 333.91,-762.6 311.83,-743.58"/>
</g>
<!-- MOSAIK::Graph::Edge -->
<g id="node18" class="node">
<title>MOSAIK::Graph::Edge</title>
<ellipse fill="lightblue" stroke="black" cx="298.64" cy="-818.92" rx="36" ry="36"/>
<text text-anchor="middle" x="298.64" y="-814.64" font-family="Times,serif" font-size="12.00">MOSAIK::Graph::Edge</text>
</g>
<!-- MOSAIK::Graph::Attributes&#45;&#45;MOSAIK::Graph::Edge -->
<g id="edge33" class="edge">
<title>MOSAIK::Graph::Attributes&#45;&#45;MOSAIK::Graph::Edge</title>
<path fill="none" stroke="black" d="M378.42,-827.92C364.48,-826.35 348.55,-824.55 334.61,-822.98"/>
</g>
<!-- MOSAIK::Graph::Attributes&#45;&#45;MOSAIK::Graph::Vertex -->
<g id="edge35" class="edge">
<title>MOSAIK::Graph::Attributes&#45;&#45;MOSAIK::Graph::Vertex</title>
<path fill="none" stroke="black" d="M446.36,-814.36C454.84,-809.68 463.99,-804.63 472.46,-799.96"/>
</g>
<!-- MOSAIK::Graph::Cluster&#45;&#45;MOSAIK -->
<g id="edge40" class="edge">
<title>MOSAIK::Graph::Cluster&#45;&#45;MOSAIK</title>
<path fill="none" stroke="black" d="M319.74,-711.39C367.63,-699.99 452.46,-679.81 500.25,-668.44"/>
</g>
<!-- MOSAIK::Graph::Cluster&#45;&#45;MOSAIK::Graph::Graph -->
<g id="edge38" class="edge">
<title>MOSAIK::Graph::Cluster&#45;&#45;MOSAIK::Graph::Graph</title>
<path fill="none" stroke="black" d="M296.75,-685.79C306.53,-659.11 320.08,-622.15 329.89,-595.42"/>
</g>
<!-- MOSAIK::Graph::Cluster&#45;&#45;MOSAIK::Graph::Edge -->
<g id="edge37" class="edge">
<title>MOSAIK::Graph::Cluster&#45;&#45;MOSAIK::Graph::Edge</title>
<path fill="none" stroke="black" d="M289.5,-755.88C290.78,-764.74 292.16,-774.21 293.44,-783.06"/>
</g>
<!-- MOSAIK::Graph::Cluster&#45;&#45;MOSAIK::Graph::Vertex -->
<g id="edge39" class="edge">
<title>MOSAIK::Graph::Cluster&#45;&#45;MOSAIK::Graph::Vertex</title>
<path fill="none" stroke="black" d="M319.14,-729.74C360.22,-741.42 428.08,-760.72 469.24,-772.42"/>
</g>
<!-- MOSAIK::Graph::Edge&#45;&#45;MOSAIK -->
<g id="edge43" class="edge">
<title>MOSAIK::Graph::Edge&#45;&#45;MOSAIK</title>
<path fill="none" stroke="black" d="M328.64,-798.8C374.08,-768.32 459.88,-710.78 505.4,-680.25"/>
</g>
<!-- MOSAIK::Graph::Edge&#45;&#45;MOSAIK::Graph::Graph -->
<g id="edge41" class="edge">
<title>MOSAIK::Graph::Edge&#45;&#45;MOSAIK::Graph::Graph</title>
<path fill="none" stroke="black" d="M304.73,-783.08C313.07,-733.97 327.98,-646.28 336.33,-597.11"/>
</g>
<!-- MOSAIK::Graph::Edge&#45;&#45;MOSAIK::Graph::Vertex -->
<g id="edge42" class="edge">
<title>MOSAIK::Graph::Edge&#45;&#45;MOSAIK::Graph::Vertex</title>
<path fill="none" stroke="black" d="M334.46,-812.56C372.1,-805.87 430.94,-795.42 468.55,-788.74"/>
</g>
<!-- MOSAIK::Graph::Vertex&#45;&#45;MOSAIK -->
<g id="edge46" class="edge">
<title>MOSAIK::Graph::Vertex&#45;&#45;MOSAIK</title>
<path fill="none" stroke="black" d="M513.26,-747.33C517.44,-730.95 522.4,-711.49 526.59,-695.11"/>
</g>
<!-- MOSAIK::Metrics::ABCSize::Parser -->
<g id="node22" class="node">
<title>MOSAIK::Metrics::ABCSize::Parser</title>
<ellipse fill="lightblue" stroke="black" cx="692" cy="-321" rx="36" ry="36"/>
<text text-anchor="middle" x="692" y="-316.73" font-family="Times,serif" font-size="12.00">MOSAIK::Metrics::ABCSize::Parser</text>
</g>
<!-- MOSAIK::Metrics::ABCSize::Processor -->
<g id="node23" class="node">
<title>MOSAIK::Metrics::ABCSize::Processor</title>
<ellipse fill="lightblue" stroke="black" cx="785.27" cy="-321.61" rx="36" ry="36"/>
<text text-anchor="middle" x="785.27" y="-317.34" font-family="Times,serif" font-size="12.00">MOSAIK::Metrics::ABCSize::Processor</text>
</g>
<!-- MOSAIK::Metrics::ABCSize::Parser&#45;&#45;MOSAIK::Metrics::ABCSize::Processor -->
<g id="edge48" class="edge">
<title>MOSAIK::Metrics::ABCSize::Parser&#45;&#45;MOSAIK::Metrics::ABCSize::Processor</title>
<path fill="none" stroke="black" d="M728.33,-321.24C735.08,-321.28 742.13,-321.33 748.89,-321.37"/>
</g>
<!-- MOSAIK::Metrics::ABCSize -->
<g id="node24" class="node">
<title>MOSAIK::Metrics::ABCSize</title>
<ellipse fill="lightblue" stroke="black" cx="739.27" cy="-241" rx="36" ry="36"/>
<text text-anchor="middle" x="739.27" y="-236.72" font-family="Times,serif" font-size="12.00">MOSAIK::Metrics::ABCSize</text>
</g>
<!-- MOSAIK::Metrics::ABCSize::Parser&#45;&#45;MOSAIK::Metrics::ABCSize -->
<g id="edge49" class="edge">
<title>MOSAIK::Metrics::ABCSize::Parser&#45;&#45;MOSAIK::Metrics::ABCSize</title>
<path fill="none" stroke="black" d="M710.41,-289.84C713.83,-284.05 717.41,-278 720.83,-272.21"/>
</g>
<!-- MOSAIK::Metrics::ABCSize::Processor&#45;&#45;MOSAIK::Metrics::ABCSize -->
<g id="edge50" class="edge">
<title>MOSAIK::Metrics::ABCSize::Processor&#45;&#45;MOSAIK::Metrics::ABCSize</title>
<path fill="none" stroke="black" d="M767.35,-290.21C764.02,-284.38 760.54,-278.28 757.21,-272.44"/>
</g>
<!-- MOSAIK::Metrics::Complexity::Parser -->
<g id="node27" class="node">
<title>MOSAIK::Metrics::Complexity::Parser</title>
<ellipse fill="lightblue" stroke="black" cx="692" cy="-813" rx="36" ry="36"/>
<text text-anchor="middle" x="692" y="-808.73" font-family="Times,serif" font-size="12.00">MOSAIK::Metrics::Complexity::Parser</text>
</g>
<!-- MOSAIK::Metrics::Complexity::Processor -->
<g id="node28" class="node">
<title>MOSAIK::Metrics::Complexity::Processor</title>
<ellipse fill="lightblue" stroke="black" cx="785.27" cy="-813.61" rx="36" ry="36"/>
<text text-anchor="middle" x="785.27" y="-809.34" font-family="Times,serif" font-size="12.00">MOSAIK::Metrics::Complexity::Processor</text>
</g>
<!-- MOSAIK::Metrics::Complexity::Parser&#45;&#45;MOSAIK::Metrics::Complexity::Processor -->
<g id="edge52" class="edge">
<title>MOSAIK::Metrics::Complexity::Parser&#45;&#45;MOSAIK::Metrics::Complexity::Processor</title>
<path fill="none" stroke="black" d="M728.33,-813.24C735.08,-813.28 742.13,-813.33 748.89,-813.37"/>
</g>
<!-- MOSAIK::Metrics::Complexity -->
<g id="node29" class="node">
<title>MOSAIK::Metrics::Complexity</title>
<ellipse fill="lightblue" stroke="black" cx="739.27" cy="-733" rx="36" ry="36"/>
<text text-anchor="middle" x="739.27" y="-728.73" font-family="Times,serif" font-size="12.00">MOSAIK::Metrics::Complexity</text>
</g>
<!-- MOSAIK::Metrics::Complexity::Parser&#45;&#45;MOSAIK::Metrics::Complexity -->
<g id="edge53" class="edge">
<title>MOSAIK::Metrics::Complexity::Parser&#45;&#45;MOSAIK::Metrics::Complexity</title>
<path fill="none" stroke="black" d="M710.41,-781.84C713.83,-776.05 717.41,-770 720.83,-764.21"/>
</g>
<!-- MOSAIK::Metrics::Complexity::Processor&#45;&#45;MOSAIK::Metrics::Complexity -->
<g id="edge54" class="edge">
<title>MOSAIK::Metrics::Complexity::Processor&#45;&#45;MOSAIK::Metrics::Complexity</title>
<path fill="none" stroke="black" d="M767.35,-782.21C764.02,-776.38 760.54,-770.28 757.21,-764.44"/>
</g>
</g>
</svg>
