<?xml version="1.0" encoding="UTF-8"?>
<svg xmlns="http://www.w3.org/2000/svg" xmlns:xlink="http://www.w3.org/1999/xlink" width="371.276pt" height="150.237pt" viewBox="0 0 371.276 150.237" version="1.1">
<g id="surface1">
<path style=" stroke:none;fill-rule:nonzero;fill:rgb(0%,0%,0%);fill-opacity:1;" d="M 77.273438 47.191406 C 77.445312 46.386719 77.574219 45.484375 77.574219 44.523438 C 77.574219 43.558594 77.4375 42.601562 77.171875 41.664062 C 78.0625 42.507812 78.605469 43.449219 78.789062 44.484375 L 78.792969 44.488281 C 78.644531 45.296875 78.042969 46.195312 77.273438 47.191406 M 87.214844 58.285156 C 85.757812 57.691406 84.070312 57.378906 82.316406 57.378906 C 81.625 57.378906 80.9375 57.429688 80.273438 57.527344 C 79.851562 56.582031 79.636719 55.660156 79.636719 54.785156 C 79.636719 52.609375 80.859375 50.734375 82.117188 49.003906 C 82.519531 48.441406 82.960938 47.871094 83.390625 47.320312 L 83.847656 46.738281 C 84.199219 46.277344 84.558594 45.8125 84.894531 45.335938 C 85.089844 45.0625 85.28125 44.78125 85.464844 44.5 C 85.691406 44.140625 85.898438 43.792969 86.09375 43.429688 C 86.363281 42.933594 86.585938 42.445312 86.761719 41.960938 C 86.972656 42.871094 87.082031 43.785156 87.082031 44.6875 C 87.082031 45.023438 87.066406 45.332031 87.042969 45.625 C 87.007812 46.109375 86.917969 46.578125 86.757812 47.097656 C 86.65625 47.433594 86.535156 47.769531 86.378906 48.128906 C 86.179688 48.585938 85.945312 49.023438 85.761719 49.355469 C 85.585938 49.679688 85.402344 49.992188 85.214844 50.300781 C 85.035156 50.601562 84.855469 50.886719 84.679688 51.160156 C 83.980469 52.277344 83.375 53.242188 83.339844 54.21875 C 83.339844 54.359375 83.355469 54.492188 83.386719 54.632812 C 83.519531 55.136719 83.699219 55.816406 84.546875 55.917969 C 85.03125 55.902344 85.355469 55.675781 85.570312 55.242188 C 85.703125 54.957031 85.769531 54.632812 85.769531 54.28125 C 85.769531 53.824219 85.660156 53.34375 85.449219 52.882812 C 85.753906 52.34375 86.15625 51.707031 86.546875 51.085938 C 86.769531 50.71875 87.019531 50.300781 87.261719 49.84375 C 88.164062 51.480469 88.617188 53.007812 88.617188 54.390625 C 88.609375 55.804688 88.152344 57.082031 87.214844 58.285156 M 77.132812 58.40625 C 76.542969 57.691406 75.570312 56.191406 75.574219 54.058594 C 75.574219 53.765625 75.589844 53.480469 75.625 53.203125 C 75.808594 51.621094 76.855469 50.191406 78.007812 48.75 L 78.242188 48.449219 C 79.285156 47.125 80.363281 45.753906 80.382812 44.109375 C 80.382812 43.914062 80.371094 43.753906 80.34375 43.597656 C 80.257812 42.976562 80.214844 42.421875 80.214844 41.917969 C 80.230469 40.214844 80.675781 38.871094 81.617188 37.761719 C 81.609375 37.882812 81.605469 38.003906 81.609375 38.125 C 81.621094 40.4375 82.726562 42.621094 83.730469 44.300781 C 83.246094 45 82.71875 45.675781 82.160156 46.394531 C 81.722656 46.960938 81.277344 47.53125 80.847656 48.117188 C 79.453125 50.066406 78.085938 52.183594 78.085938 54.785156 C 78.085938 55.769531 78.300781 56.800781 78.730469 57.847656 C 78.175781 57.996094 77.640625 58.183594 77.132812 58.40625 M 99.71875 61.183594 C 99.667969 61.039062 99.605469 60.898438 99.535156 60.761719 C 99.277344 60.253906 98.902344 59.804688 98.441406 59.457031 L 104.742188 43.207031 C 104.878906 43.1875 105.015625 43.179688 105.15625 43.179688 C 106.160156 43.179688 107.152344 43.660156 107.875 44.496094 C 108.46875 45.183594 108.816406 46.039062 108.859375 46.917969 Z M 55.773438 46.917969 C 55.816406 46.042969 56.167969 45.1875 56.761719 44.496094 C 57.484375 43.660156 58.476562 43.179688 59.484375 43.179688 C 59.625 43.179688 59.761719 43.1875 59.894531 43.207031 L 66.195312 59.457031 C 65.738281 59.804688 65.363281 60.25 65.101562 60.757812 C 65.03125 60.898438 64.96875 61.039062 64.917969 61.183594 Z M 101.007812 64.363281 C 100.671875 64.109375 100.296875 63.90625 99.898438 63.769531 L 109.953125 48.078125 C 110.992188 48.207031 111.949219 48.855469 112.542969 49.847656 C 113.109375 50.796875 113.265625 51.914062 112.96875 52.925781 Z M 51.667969 52.929688 C 51.367188 51.917969 51.523438 50.800781 52.09375 49.847656 C 52.6875 48.855469 53.648438 48.207031 54.6875 48.078125 L 64.738281 63.765625 C 64.34375 63.90625 63.972656 64.105469 63.628906 64.363281 Z M 48.328125 59.433594 C 47.851562 58.445312 47.851562 57.230469 48.335938 56.164062 C 48.8125 55.125 49.691406 54.378906 50.710938 54.140625 L 62.597656 65.507812 C 62.5625 65.558594 62.53125 65.609375 62.5 65.667969 C 62.226562 66.199219 62.085938 66.773438 62.085938 67.375 C 62.085938 67.382812 62.085938 67.390625 62.085938 67.398438 Z M 102.550781 67.375 C 102.550781 66.777344 102.414062 66.207031 102.140625 65.667969 C 102.109375 65.609375 102.074219 65.558594 102.042969 65.507812 L 113.925781 54.140625 C 114.941406 54.371094 115.820312 55.117188 116.296875 56.164062 C 116.78125 57.222656 116.785156 58.4375 116.308594 59.433594 L 102.550781 67.402344 Z M 102.652344 70.765625 C 102.472656 70.308594 102.214844 69.894531 101.894531 69.550781 L 117.132812 60.726562 C 117.964844 61.136719 118.605469 61.914062 118.910156 62.886719 C 119.261719 64.023438 119.097656 65.242188 118.472656 66.175781 Z M 46.164062 66.175781 C 45.539062 65.242188 45.375 64.019531 45.730469 62.886719 C 46.03125 61.917969 46.671875 61.136719 47.503906 60.726562 L 62.742188 69.550781 C 62.421875 69.894531 62.164062 70.304688 61.984375 70.765625 Z M 102.429688 74.015625 C 102.738281 73.484375 102.910156 72.894531 102.929688 72.273438 L 118.632812 67.714844 C 119.378906 68.328125 119.820312 69.34375 119.828125 70.46875 C 119.832031 71.507812 119.457031 72.5 118.796875 73.210938 Z M 45.839844 73.214844 C 45.179688 72.496094 44.804688 71.503906 44.808594 70.46875 C 44.8125 69.351562 45.257812 68.335938 46.003906 67.71875 L 61.699219 72.308594 C 61.726562 72.910156 61.902344 73.496094 62.203125 74.015625 Z M 102.726562 77.386719 C 102.714844 76.734375 102.535156 76.113281 102.203125 75.550781 L 118.851562 74.738281 C 119.390625 75.433594 119.632812 76.386719 119.511719 77.378906 C 119.367188 78.550781 118.753906 79.59375 117.855469 80.199219 Z M 46.78125 80.199219 C 45.886719 79.597656 45.269531 78.550781 45.125 77.378906 C 45.003906 76.386719 45.246094 75.433594 45.792969 74.738281 L 62.433594 75.550781 C 62.097656 76.113281 61.921875 76.738281 61.910156 77.386719 Z M 48.839844 86.148438 C 47.960938 85.757812 47.265625 84.890625 47.007812 83.851562 C 46.816406 83.074219 46.902344 82.304688 47.25 81.667969 L 62.199219 78.886719 C 62.417969 79.40625 62.75 79.878906 63.167969 80.261719 Z M 101.46875 80.261719 C 101.890625 79.878906 102.222656 79.40625 102.4375 78.882812 L 117.394531 81.671875 C 117.738281 82.304688 117.824219 83.074219 117.628906 83.855469 C 117.375 84.894531 116.671875 85.761719 115.792969 86.148438 Z M 101.273438 84.054688 C 101.496094 83.570312 101.609375 83.050781 101.609375 82.515625 C 101.609375 82.332031 101.59375 82.144531 101.566406 81.957031 L 114.839844 87.40625 C 115.101562 88.113281 115.035156 88.957031 114.652344 89.746094 C 114.246094 90.574219 113.53125 91.226562 112.71875 91.515625 Z M 51.917969 91.515625 C 51.105469 91.226562 50.394531 90.574219 49.984375 89.75 C 49.597656 88.960938 49.53125 88.113281 49.792969 87.40625 L 63.074219 81.953125 C 63.046875 82.140625 63.03125 82.324219 63.03125 82.515625 C 63.027344 83.050781 63.140625 83.570312 63.371094 84.070312 Z M 55.644531 95.992188 C 54.742188 95.847656 53.878906 95.277344 53.324219 94.445312 C 52.976562 93.9375 52.78125 93.371094 52.753906 92.804688 L 64.285156 85.300781 C 64.734375 85.714844 65.269531 86.015625 65.851562 86.191406 C 65.84375 86.222656 65.839844 86.253906 65.832031 86.28125 Z M 98.804688 86.28125 C 98.796875 86.25 98.789062 86.21875 98.785156 86.1875 C 99.363281 86.015625 99.898438 85.714844 100.351562 85.300781 L 111.882812 92.800781 C 111.855469 93.367188 111.664062 93.933594 111.316406 94.445312 C 110.753906 95.28125 109.894531 95.851562 108.992188 95.996094 Z M 60.027344 99.441406 C 59.15625 99.410156 58.289062 99.027344 57.628906 98.378906 C 57.226562 97.992188 56.9375 97.535156 56.777344 97.046875 L 65.941406 88.308594 C 66.085938 88.738281 66.3125 89.144531 66.601562 89.503906 C 66.65625 89.566406 66.714844 89.628906 66.777344 89.683594 Z M 97.859375 89.683594 C 97.921875 89.628906 97.976562 89.566406 98.03125 89.503906 C 98.324219 89.144531 98.546875 88.738281 98.695312 88.308594 L 107.859375 97.046875 C 107.703125 97.53125 107.414062 97.988281 107.011719 98.378906 C 106.351562 99.027344 105.480469 99.410156 104.609375 99.441406 Z M 100.082031 102.246094 C 99.914062 102.246094 99.75 102.234375 99.589844 102.210938 L 94.558594 91.003906 C 94.550781 90.992188 94.546875 90.984375 94.546875 90.976562 C 94.546875 90.964844 94.550781 90.949219 94.550781 90.933594 C 94.679688 90.945312 94.800781 90.953125 94.921875 90.953125 C 95.484375 90.953125 96.058594 90.820312 96.597656 90.574219 L 103.328125 100.296875 C 103.09375 100.765625 102.722656 101.191406 102.25 101.535156 C 101.605469 101.992188 100.835938 102.246094 100.082031 102.246094 M 64.554688 102.25 C 63.800781 102.25 63.035156 101.992188 62.390625 101.535156 C 61.914062 101.191406 61.546875 100.765625 61.308594 100.296875 L 68.039062 90.574219 C 68.578125 90.824219 69.148438 90.953125 69.710938 90.953125 C 69.839844 90.953125 69.964844 90.949219 70.082031 90.9375 C 70.085938 90.953125 70.089844 90.96875 70.089844 90.984375 C 70.085938 90.996094 65.054688 102.210938 65.054688 102.210938 C 64.890625 102.234375 64.722656 102.25 64.554688 102.25 M 68.972656 104.339844 C 68.535156 104.339844 68.082031 104.246094 67.667969 104.074219 C 67.121094 103.84375 66.664062 103.480469 66.375 103.042969 L 70.949219 92.847656 C 71.035156 92.957031 71.128906 93.054688 71.21875 93.140625 C 71.539062 93.449219 71.90625 93.695312 72.3125 93.878906 L 70.132812 104.101562 C 69.789062 104.257812 69.390625 104.339844 68.972656 104.339844 M 95.664062 104.339844 C 95.246094 104.339844 94.847656 104.257812 94.503906 104.101562 L 92.324219 93.875 C 92.742188 93.6875 93.105469 93.441406 93.417969 93.140625 C 93.511719 93.050781 93.601562 92.957031 93.6875 92.851562 L 98.265625 103.042969 C 97.972656 103.480469 97.519531 103.84375 96.972656 104.074219 C 96.554688 104.246094 96.101562 104.339844 95.664062 104.339844 M 73.839844 105.023438 C 73.75 105.023438 73.660156 105.019531 73.566406 105.011719 C 72.8125 104.953125 72.144531 104.644531 71.710938 104.164062 L 73.828125 94.226562 C 73.875 94.230469 73.921875 94.234375 73.96875 94.234375 C 74.613281 94.234375 75.269531 94.070312 75.867188 93.765625 L 75.378906 104.652344 C 74.925781 104.894531 74.386719 105.023438 73.839844 105.023438 M 90.796875 105.023438 C 90.242188 105.023438 89.714844 104.894531 89.257812 104.652344 L 88.765625 93.769531 C 89.367188 94.074219 90.011719 94.234375 90.664062 94.234375 C 90.714844 94.234375 90.761719 94.230469 90.808594 94.226562 L 92.929688 104.167969 C 92.496094 104.648438 91.828125 104.953125 91.070312 105.011719 C 90.976562 105.019531 90.886719 105.023438 90.796875 105.023438 M 81.414062 123.800781 L 81.351562 120.242188 C 81.347656 119.976562 81.199219 119.730469 80.964844 119.597656 C 80.082031 119.105469 79.554688 118.242188 79.554688 117.289062 C 79.554688 116.359375 80.050781 115.507812 80.882812 115.011719 C 81.121094 114.871094 81.265625 114.617188 81.257812 114.347656 C 81.152344 108.339844 81.035156 103.574219 80.796875 99.832031 C 80.667969 97.722656 80.507812 96.105469 80.316406 94.878906 C 80.074219 93.445312 79.867188 92.617188 79.398438 92.058594 C 78.855469 91.453125 78.238281 91.136719 77.601562 91.136719 C 76.738281 91.152344 76.152344 91.667969 75.804688 91.976562 C 75.273438 92.460938 74.632812 92.710938 73.96875 92.710938 C 73.34375 92.710938 72.75 92.476562 72.300781 92.050781 C 71.84375 91.613281 71.589844 91.023438 71.589844 90.386719 C 71.589844 90.289062 71.597656 90.1875 71.605469 90.089844 C 71.640625 89.820312 71.53125 89.550781 71.3125 89.394531 C 71.171875 89.292969 71.003906 89.234375 70.835938 89.234375 C 70.742188 89.234375 70.652344 89.253906 70.566406 89.285156 C 70.285156 89.382812 69.992188 89.429688 69.710938 89.429688 C 68.960938 89.425781 68.269531 89.105469 67.8125 88.546875 C 67.472656 88.132812 67.292969 87.628906 67.292969 87.09375 C 67.292969 86.699219 67.394531 86.308594 67.589844 85.964844 C 67.722656 85.726562 67.71875 85.445312 67.585938 85.210938 C 67.453125 84.980469 67.203125 84.835938 66.929688 84.832031 C 66.050781 84.800781 65.253906 84.324219 64.855469 83.582031 C 64.671875 83.25 64.582031 82.890625 64.582031 82.515625 C 64.582031 81.910156 64.832031 81.3125 65.269531 80.875 C 65.457031 80.683594 65.535156 80.425781 65.476562 80.179688 C 65.417969 79.925781 65.246094 79.730469 65.003906 79.632812 C 64.0625 79.269531 63.457031 78.414062 63.460938 77.457031 C 63.460938 76.664062 63.871094 75.933594 64.558594 75.492188 C 64.789062 75.347656 64.929688 75.082031 64.914062 74.820312 C 64.90625 74.566406 64.753906 74.316406 64.511719 74.1875 C 63.726562 73.761719 63.253906 72.996094 63.253906 72.144531 C 63.257812 71.378906 63.632812 70.683594 64.285156 70.238281 C 64.46875 70.121094 64.59375 69.90625 64.617188 69.675781 C 64.632812 69.449219 64.546875 69.226562 64.378906 69.066406 C 63.90625 68.625 63.636719 68.007812 63.636719 67.375 C 63.640625 67.011719 63.722656 66.667969 63.882812 66.359375 C 64.292969 65.558594 65.132812 65.058594 66.078125 65.058594 C 66.367188 65.058594 66.628906 64.902344 66.765625 64.648438 C 66.90625 64.382812 66.878906 64.066406 66.699219 63.84375 C 66.40625 63.4375 66.242188 62.945312 66.242188 62.464844 C 66.242188 62.109375 66.324219 61.769531 66.488281 61.445312 C 66.839844 60.761719 67.515625 60.28125 68.300781 60.167969 C 68.507812 60.136719 68.695312 60.023438 68.816406 59.859375 C 68.9375 59.691406 68.984375 59.492188 68.953125 59.296875 C 68.898438 58.925781 68.578125 58.652344 68.191406 58.652344 C 68.148438 58.652344 68.109375 58.652344 68.066406 58.660156 C 67.914062 58.683594 67.75 58.71875 67.585938 58.765625 L 61.261719 42.445312 C 61.484375 41.332031 62.242188 40.300781 63.304688 39.683594 C 63.972656 39.292969 64.703125 39.085938 65.417969 39.085938 C 66.050781 39.085938 66.640625 39.246094 67.132812 39.546875 L 67.296875 40.542969 C 68.316406 46.851562 70.714844 61.621094 71.214844 63.914062 C 71.289062 64.242188 71.324219 64.53125 71.324219 64.777344 C 71.324219 65.375 71.105469 65.71875 70.628906 66.472656 L 70.496094 66.6875 C 69.8125 67.78125 69.082031 69.117188 68.351562 71.492188 C 67.941406 72.820312 67.734375 74.285156 67.734375 75.847656 C 67.75 81.027344 69.875 85.957031 73.019531 88.105469 C 74.277344 88.949219 75.390625 89.359375 76.429688 89.359375 C 77.601562 89.359375 78.625 88.773438 79.25 87.75 C 79.816406 86.835938 80.105469 85.609375 80.105469 84.113281 C 80.105469 83.96875 80.101562 83.824219 80.097656 83.667969 C 80.058594 82.679688 80.046875 81.3125 80.035156 79.726562 C 80.019531 78.128906 80.003906 76.316406 79.957031 74.582031 C 79.867188 71.648438 79.730469 68.65625 79.214844 67.097656 L 79.21875 67.074219 L 79.164062 66.933594 C 79.136719 66.867188 79.105469 66.796875 79.070312 66.722656 L 79.070312 66.675781 L 79.035156 66.636719 C 78.445312 65.539062 77.304688 64.730469 75.554688 64.164062 C 75.535156 63.867188 75.523438 63.570312 75.523438 63.28125 C 75.523438 62.625 75.574219 61.929688 75.671875 61.222656 C 76.921875 59.808594 79.503906 58.902344 82.28125 58.902344 L 82.359375 58.902344 C 84.023438 58.902344 85.667969 59.238281 87 59.855469 C 87.066406 59.898438 87.144531 59.933594 87.234375 59.960938 C 87.949219 60.3125 88.542969 60.746094 88.960938 61.214844 C 89.058594 61.90625 89.113281 62.617188 89.113281 63.277344 C 89.113281 63.550781 89.101562 63.847656 89.078125 64.164062 C 87.328125 64.730469 86.1875 65.542969 85.601562 66.640625 L 85.585938 66.671875 L 85.574219 66.707031 C 85.542969 66.757812 85.503906 66.851562 85.460938 66.960938 C 85.445312 67 85.433594 67.039062 85.429688 67.085938 C 84.953125 68.464844 84.789062 70.980469 84.679688 74.582031 C 84.632812 76.320312 84.617188 78.132812 84.601562 79.734375 C 84.589844 81.316406 84.578125 82.683594 84.542969 83.675781 C 84.535156 83.820312 84.53125 83.96875 84.53125 84.109375 C 84.53125 85.609375 84.820312 86.835938 85.390625 87.75 C 86.015625 88.773438 87.039062 89.359375 88.195312 89.359375 C 89.242188 89.355469 90.382812 88.933594 91.609375 88.105469 C 94.761719 85.953125 96.886719 81.027344 96.898438 75.847656 C 96.898438 74.289062 96.691406 72.824219 96.285156 71.496094 C 95.5625 69.148438 94.828125 67.796875 94.136719 66.6875 L 93.992188 66.453125 C 93.523438 65.710938 93.3125 65.367188 93.3125 64.777344 C 93.3125 64.550781 93.347656 64.265625 93.417969 63.917969 C 93.949219 61.503906 96.605469 45.078125 97.476562 39.679688 L 97.5 39.546875 C 97.996094 39.246094 98.585938 39.085938 99.214844 39.085938 C 99.933594 39.085938 100.664062 39.292969 101.328125 39.683594 C 102.386719 40.296875 103.148438 41.324219 103.378906 42.441406 L 97.050781 58.765625 C 96.886719 58.71875 96.726562 58.683594 96.566406 58.660156 C 96.527344 58.652344 96.488281 58.648438 96.449219 58.648438 C 96.0625 58.648438 95.738281 58.925781 95.679688 59.300781 C 95.648438 59.5 95.703125 59.707031 95.824219 59.867188 C 95.953125 60.03125 96.132812 60.140625 96.34375 60.164062 C 97.117188 60.28125 97.796875 60.761719 98.148438 61.445312 C 98.3125 61.765625 98.394531 62.109375 98.394531 62.460938 C 98.394531 62.945312 98.230469 63.4375 97.929688 63.84375 L 97.867188 63.929688 L 97.867188 63.980469 C 97.800781 64.140625 97.773438 64.269531 97.78125 64.375 L 97.769531 64.390625 L 97.820312 64.539062 C 97.914062 64.808594 98.15625 65.007812 98.457031 65.050781 L 98.546875 65.058594 C 98.554688 65.058594 98.589844 65.058594 98.640625 65.054688 C 99.523438 65.070312 100.34375 65.570312 100.746094 66.359375 C 100.914062 66.671875 101 67.011719 101 67.375 C 101 68.007812 100.726562 68.621094 100.257812 69.058594 C 100.085938 69.21875 100.003906 69.441406 100.023438 69.675781 C 100.035156 69.894531 100.15625 70.101562 100.347656 70.234375 C 100.992188 70.675781 101.367188 71.355469 101.382812 72.101562 L 101.382812 72.144531 C 101.382812 72.980469 100.902344 73.765625 100.128906 74.1875 C 99.886719 74.308594 99.730469 74.554688 99.722656 74.828125 C 99.710938 75.09375 99.847656 75.351562 100.082031 75.496094 C 100.761719 75.925781 101.171875 76.65625 101.175781 77.445312 L 101.175781 77.453125 C 101.175781 78.417969 100.574219 79.273438 99.636719 79.632812 C 99.382812 79.734375 99.210938 79.933594 99.160156 80.179688 C 99.105469 80.425781 99.179688 80.683594 99.363281 80.871094 C 99.808594 81.316406 100.050781 81.898438 100.050781 82.515625 C 100.050781 82.894531 99.960938 83.253906 99.785156 83.582031 C 99.386719 84.316406 98.585938 84.796875 97.699219 84.832031 C 97.4375 84.835938 97.1875 84.980469 97.054688 85.207031 C 96.917969 85.445312 96.914062 85.726562 97.042969 85.960938 C 97.242188 86.304688 97.34375 86.695312 97.34375 87.09375 C 97.34375 87.628906 97.164062 88.128906 96.824219 88.546875 C 96.363281 89.105469 95.671875 89.425781 94.921875 89.425781 C 94.628906 89.425781 94.339844 89.378906 94.058594 89.28125 C 93.984375 89.253906 93.890625 89.234375 93.796875 89.234375 C 93.628906 89.234375 93.460938 89.292969 93.324219 89.398438 C 93.113281 89.550781 92.996094 89.816406 93.023438 90.082031 C 93.039062 90.191406 93.046875 90.292969 93.046875 90.386719 C 93.046875 91.027344 92.792969 91.617188 92.335938 92.046875 C 91.882812 92.476562 91.292969 92.710938 90.664062 92.710938 C 90.003906 92.710938 89.359375 92.460938 88.859375 92 C 88.476562 91.664062 87.890625 91.148438 87.035156 91.136719 C 86.394531 91.136719 85.777344 91.453125 85.242188 92.050781 C 84.769531 92.617188 84.554688 93.480469 84.324219 94.875 C 83.703125 98.820312 83.515625 106.652344 83.378906 114.339844 C 83.375 114.617188 83.515625 114.867188 83.753906 115.007812 C 84.597656 115.503906 85.097656 116.355469 85.097656 117.289062 C 85.097656 118.238281 84.554688 119.125 83.683594 119.597656 C 83.441406 119.730469 83.289062 119.984375 83.285156 120.253906 L 83.226562 123.800781 Z M 81.414062 123.800781 "/>
<path style=" stroke:none;fill-rule:nonzero;fill:rgb(0%,0%,0%);fill-opacity:1;" d="M 152.171875 49.171875 L 152.171875 70.445312 L 146.628906 70.445312 L 146.628906 49.171875 L 139.394531 49.171875 L 139.394531 44.53125 L 159.445312 44.53125 L 159.445312 49.171875 Z M 152.171875 49.171875 "/>
<path style=" stroke:none;fill-rule:nonzero;fill:rgb(0%,0%,0%);fill-opacity:1;" d="M 184.460938 61.015625 C 184.460938 67.0625 180.46875 70.953125 173.628906 70.953125 C 166.824219 70.953125 162.792969 67.0625 162.792969 61.015625 L 162.792969 44.53125 L 168.335938 44.53125 L 168.335938 60.476562 C 168.335938 63.859375 170.242188 65.875 173.628906 65.875 C 177.046875 65.875 178.917969 63.859375 178.917969 60.476562 L 178.917969 44.53125 L 184.460938 44.53125 Z M 184.460938 61.015625 "/>
<path style=" stroke:none;fill-rule:nonzero;fill:rgb(0%,0%,0%);fill-opacity:1;" d="M 195.695312 49.171875 L 195.695312 56.914062 L 199.65625 56.914062 C 202.101562 56.914062 203.796875 55.6875 203.796875 53.0625 C 203.796875 50.46875 202.03125 49.171875 199.511719 49.171875 Z M 199.367188 44.53125 C 205.378906 44.53125 209.375 47.515625 209.375 53.0625 C 209.375 56.839844 207.25 59.324219 204.441406 60.441406 L 209.878906 70.445312 L 204.011719 70.445312 L 199.4375 61.375 L 195.695312 61.375 L 195.695312 70.445312 L 190.261719 70.445312 L 190.261719 44.53125 Z M 199.367188 44.53125 "/>
<path style=" stroke:none;fill-rule:nonzero;fill:rgb(0%,0%,0%);fill-opacity:1;" d="M 235.617188 61.015625 C 235.617188 67.0625 231.621094 70.953125 224.78125 70.953125 C 217.980469 70.953125 213.949219 67.0625 213.949219 61.015625 L 213.949219 44.53125 L 219.492188 44.53125 L 219.492188 60.476562 C 219.492188 63.859375 221.398438 65.875 224.78125 65.875 C 228.203125 65.875 230.074219 63.859375 230.074219 60.476562 L 230.074219 44.53125 L 235.617188 44.53125 Z M 235.617188 61.015625 "/>
<path style=" stroke:none;fill-rule:nonzero;fill:rgb(0%,0%,0%);fill-opacity:1;" d="M 262.761719 70.84375 L 248.542969 57.199219 L 246.851562 55.722656 L 246.851562 70.445312 L 241.414062 70.445312 L 241.414062 44.132812 L 241.632812 44.132812 L 255.816406 57.777344 L 257.46875 59.25 L 257.46875 44.53125 L 262.941406 44.53125 L 262.941406 70.84375 Z M 262.761719 70.84375 "/>
<path style=" stroke:none;fill-rule:nonzero;fill:rgb(0%,0%,0%);fill-opacity:1;" d="M 144.433594 79.382812 L 150.371094 90 L 156.3125 79.382812 L 162.574219 79.382812 L 153.144531 95.253906 L 153.144531 105.296875 L 147.601562 105.296875 L 147.601562 95.253906 L 138.207031 79.382812 Z M 144.433594 79.382812 "/>
<path style=" stroke:none;fill-rule:nonzero;fill:rgb(0%,0%,0%);fill-opacity:1;" d="M 165.0625 105.296875 L 165.0625 79.382812 L 170.605469 79.382812 L 170.605469 100.65625 L 180.574219 100.65625 L 180.574219 105.296875 Z M 165.0625 105.296875 "/>
<path style=" stroke:none;fill-rule:nonzero;fill:rgb(0%,0%,0%);fill-opacity:1;" d="M 184.570312 79.382812 L 190.113281 79.382812 L 190.113281 105.300781 L 184.570312 105.300781 Z M 184.570312 79.382812 "/>
<path style=" stroke:none;fill-rule:nonzero;fill:rgb(0%,0%,0%);fill-opacity:1;" d="M 208.1875 100.726562 C 212.867188 100.726562 216.175781 96.984375 216.175781 92.339844 C 216.175781 87.730469 212.867188 83.953125 208.1875 83.953125 C 203.507812 83.953125 200.195312 87.730469 200.195312 92.339844 C 200.195312 96.984375 203.507812 100.726562 208.1875 100.726562 M 208.1875 78.878906 C 216 78.878906 221.757812 84.851562 221.757812 92.339844 C 221.757812 99.898438 216.035156 105.800781 208.1875 105.800781 C 200.339844 105.800781 194.617188 99.898438 194.617188 92.339844 C 194.617188 84.886719 200.339844 78.878906 208.1875 78.878906 "/>
<path style=" stroke:none;fill-rule:nonzero;fill:rgb(0%,0%,0%);fill-opacity:1;" d="M 231.839844 84.023438 L 231.839844 91.765625 L 235.007812 91.765625 C 237.417969 91.765625 239.074219 90.503906 239.074219 87.914062 C 239.074219 85.320312 237.347656 84.023438 234.863281 84.023438 Z M 231.839844 96.441406 L 231.839844 105.296875 L 226.296875 105.296875 L 226.296875 79.382812 L 234.71875 79.382812 C 240.695312 79.382812 244.691406 82.332031 244.691406 87.914062 C 244.691406 93.492188 240.695312 96.441406 234.71875 96.441406 Z M 231.839844 96.441406 "/>
<path style=" stroke:none;fill-rule:nonzero;fill:rgb(0%,0%,0%);fill-opacity:1;" d="M 248.722656 79.382812 L 254.265625 79.382812 L 254.265625 105.300781 L 248.722656 105.300781 Z M 248.722656 79.382812 "/>
<path style=" stroke:none;fill-rule:nonzero;fill:rgb(0%,0%,0%);fill-opacity:1;" d="M 259.234375 104.328125 L 259.234375 99 C 261.035156 99.933594 263.410156 100.726562 265.75 100.871094 C 266.578125 100.90625 267.371094 100.871094 268.054688 100.726562 C 270.035156 100.4375 271.183594 99.683594 271.183594 98.421875 C 271.183594 96.695312 269.636719 95.796875 266.074219 94.5 C 261.539062 92.84375 258.875 90.9375 258.875 86.4375 C 258.875 81.828125 262.691406 78.878906 268.269531 78.878906 C 270.859375 78.878906 273.417969 79.453125 275.039062 80.171875 L 275.039062 85.285156 C 273.523438 84.386719 271.078125 83.699219 268.703125 83.699219 C 266.039062 83.699219 264.308594 84.746094 264.308594 86.402344 C 264.308594 87.914062 265.714844 88.957031 269.242188 90.289062 C 273.777344 92.054688 276.585938 93.960938 276.585938 98.316406 C 276.585938 102.996094 273.058594 105.804688 266.9375 105.804688 C 263.984375 105.804688 261.105469 105.152344 259.234375 104.328125 "/>
<path style=" stroke:none;fill-rule:nonzero;fill:rgb(0%,0%,0%);fill-opacity:1;" d="M 291.234375 84.023438 L 291.234375 105.296875 L 285.691406 105.296875 L 285.691406 84.023438 L 278.457031 84.023438 L 278.457031 79.382812 L 298.507812 79.382812 L 298.507812 84.023438 Z M 291.234375 84.023438 "/>
<path style=" stroke:none;fill-rule:nonzero;fill:rgb(0%,0%,0%);fill-opacity:1;" d="M 314.132812 100.726562 C 318.8125 100.726562 322.121094 96.984375 322.121094 92.339844 C 322.121094 87.730469 318.8125 83.953125 314.132812 83.953125 C 309.453125 83.953125 306.140625 87.730469 306.140625 92.339844 C 306.140625 96.984375 309.453125 100.726562 314.132812 100.726562 M 314.132812 78.878906 C 321.945312 78.878906 327.703125 84.851562 327.703125 92.339844 C 327.703125 99.898438 321.980469 105.800781 314.132812 105.800781 C 306.285156 105.800781 300.5625 99.898438 300.5625 92.339844 C 300.5625 84.886719 306.285156 78.878906 314.132812 78.878906 "/>
</g>
</svg>
