<?xml version="1.0" encoding="UTF-8"?>
<svg xmlns="http://www.w3.org/2000/svg" xmlns:xlink="http://www.w3.org/1999/xlink" width="397.144" height="147.322" viewBox="0 0 397.144 147.322">
<path fill-rule="nonzero" fill="rgb(0%, 0%, 0%)" fill-opacity="1" d="M 78.226562 47.585938 C 78.398438 46.785156 78.527344 45.878906 78.527344 44.917969 C 78.527344 43.957031 78.390625 43 78.125 42.0625 C 79.015625 42.902344 79.558594 43.847656 79.742188 44.878906 L 79.746094 44.886719 C 79.597656 45.691406 78.996094 46.59375 78.226562 47.585938 M 88.167969 58.683594 C 86.710938 58.089844 85.023438 57.777344 83.269531 57.773438 C 82.578125 57.777344 81.890625 57.828125 81.226562 57.921875 C 80.804688 56.980469 80.589844 56.058594 80.589844 55.179688 C 80.589844 53.007812 81.816406 51.132812 83.066406 49.398438 C 83.472656 48.835938 83.914062 48.269531 84.34375 47.71875 L 84.800781 47.132812 C 85.152344 46.675781 85.507812 46.207031 85.847656 45.730469 C 86.042969 45.457031 86.234375 45.179688 86.414062 44.894531 C 86.648438 44.539062 86.851562 44.1875 87.046875 43.828125 C 87.316406 43.328125 87.539062 42.84375 87.714844 42.355469 C 87.925781 43.265625 88.035156 44.179688 88.035156 45.085938 C 88.035156 45.417969 88.019531 45.726562 87.996094 46.023438 C 87.960938 46.503906 87.871094 46.972656 87.710938 47.496094 C 87.609375 47.828125 87.488281 48.167969 87.332031 48.523438 C 87.132812 48.984375 86.898438 49.421875 86.714844 49.75 C 86.539062 50.074219 86.351562 50.386719 86.167969 50.695312 C 85.988281 50.996094 85.808594 51.28125 85.632812 51.558594 C 84.933594 52.675781 84.328125 53.636719 84.292969 54.613281 C 84.292969 54.757812 84.308594 54.890625 84.339844 55.027344 C 84.472656 55.535156 84.652344 56.214844 85.5 56.316406 C 85.984375 56.300781 86.308594 56.070312 86.523438 55.636719 C 86.65625 55.351562 86.722656 55.03125 86.722656 54.679688 C 86.722656 54.222656 86.613281 53.742188 86.398438 53.28125 C 86.707031 52.738281 87.109375 52.101562 87.496094 51.484375 C 87.722656 51.117188 87.96875 50.695312 88.214844 50.242188 C 89.113281 51.875 89.570312 53.402344 89.570312 54.789062 C 89.5625 56.203125 89.105469 57.476562 88.167969 58.683594 M 78.085938 58.800781 C 77.496094 58.089844 76.523438 56.589844 76.527344 54.453125 C 76.527344 54.164062 76.542969 53.878906 76.578125 53.601562 C 76.761719 52.015625 77.808594 50.589844 78.960938 49.144531 L 79.195312 48.847656 C 80.238281 47.523438 81.316406 46.148438 81.335938 44.503906 C 81.335938 44.3125 81.324219 44.148438 81.296875 43.996094 C 81.210938 43.371094 81.167969 42.820312 81.167969 42.316406 C 81.183594 40.613281 81.628906 39.269531 82.570312 38.15625 C 82.5625 38.28125 82.558594 38.402344 82.5625 38.519531 C 82.574219 40.832031 83.679688 43.019531 84.683594 44.699219 C 84.199219 45.394531 83.671875 46.074219 83.113281 46.789062 C 82.671875 47.355469 82.230469 47.929688 81.800781 48.515625 C 80.40625 50.460938 79.039062 52.578125 79.039062 55.179688 C 79.039062 56.167969 79.253906 57.195312 79.683594 58.246094 C 79.128906 58.394531 78.59375 58.582031 78.085938 58.800781 M 100.671875 61.578125 C 100.621094 61.4375 100.558594 61.296875 100.488281 61.15625 C 100.230469 60.648438 99.855469 60.203125 99.398438 59.851562 L 105.695312 43.605469 C 105.832031 43.585938 105.96875 43.574219 106.109375 43.574219 C 107.113281 43.574219 108.105469 44.054688 108.828125 44.894531 C 109.421875 45.582031 109.769531 46.433594 109.8125 47.3125 Z M 56.726562 47.3125 C 56.769531 46.4375 57.117188 45.582031 57.714844 44.894531 C 58.4375 44.054688 59.429688 43.578125 60.441406 43.578125 C 60.578125 43.578125 60.714844 43.585938 60.847656 43.605469 L 67.148438 59.851562 C 66.691406 60.199219 66.316406 60.644531 66.050781 61.15625 C 65.984375 61.296875 65.921875 61.4375 65.871094 61.582031 Z M 101.960938 64.761719 C 101.621094 64.503906 101.246094 64.304688 100.851562 64.164062 L 110.902344 48.472656 C 111.945312 48.601562 112.902344 49.253906 113.496094 50.242188 C 114.0625 51.191406 114.21875 52.308594 113.921875 53.320312 Z M 52.621094 53.324219 C 52.320312 52.3125 52.472656 51.195312 53.046875 50.246094 C 53.640625 49.253906 54.601562 48.601562 55.636719 48.472656 L 65.691406 64.164062 C 65.296875 64.300781 64.925781 64.5 64.582031 64.761719 Z M 49.28125 59.832031 C 48.804688 58.84375 48.804688 57.628906 49.289062 56.5625 C 49.765625 55.519531 50.644531 54.773438 51.660156 54.535156 L 63.550781 65.902344 C 63.515625 65.953125 63.484375 66.007812 63.453125 66.066406 C 63.175781 66.597656 63.039062 67.171875 63.039062 67.773438 C 63.039062 67.78125 63.039062 67.789062 63.039062 67.796875 Z M 103.503906 67.769531 C 103.503906 67.175781 103.363281 66.601562 103.09375 66.066406 C 103.0625 66.007812 103.027344 65.953125 102.992188 65.902344 L 114.878906 54.535156 C 115.894531 54.769531 116.773438 55.515625 117.25 56.5625 C 117.734375 57.621094 117.738281 58.835938 117.261719 59.832031 L 103.5 67.800781 C 103.5 67.789062 103.503906 67.78125 103.503906 67.769531 M 103.605469 71.164062 C 103.425781 70.707031 103.167969 70.292969 102.847656 69.945312 L 118.085938 61.125 C 118.917969 61.535156 119.558594 62.3125 119.863281 63.285156 C 120.214844 64.417969 120.050781 65.636719 119.425781 66.574219 Z M 47.117188 66.574219 C 46.492188 65.636719 46.328125 64.417969 46.683594 63.285156 C 46.984375 62.3125 47.625 61.535156 48.457031 61.125 L 63.695312 69.949219 C 63.375 70.289062 63.117188 70.703125 62.9375 71.164062 Z M 103.382812 74.414062 C 103.691406 73.882812 103.863281 73.289062 103.882812 72.671875 L 119.585938 68.113281 C 120.328125 68.722656 120.773438 69.742188 120.78125 70.867188 C 120.785156 71.902344 120.410156 72.894531 119.75 73.605469 Z M 46.792969 73.613281 C 46.132812 72.894531 45.757812 71.898438 45.761719 70.863281 C 45.765625 69.75 46.207031 68.730469 46.957031 68.113281 L 62.652344 72.703125 C 62.679688 73.308594 62.855469 73.894531 63.15625 74.414062 Z M 103.679688 77.785156 C 103.667969 77.132812 103.488281 76.511719 103.15625 75.949219 L 119.804688 75.136719 C 120.34375 75.828125 120.585938 76.78125 120.464844 77.773438 C 120.320312 78.945312 119.707031 79.992188 118.808594 80.597656 Z M 47.734375 80.597656 C 46.839844 79.992188 46.222656 78.949219 46.078125 77.773438 C 45.957031 76.78125 46.199219 75.828125 46.742188 75.136719 L 63.386719 75.949219 C 63.050781 76.511719 62.871094 77.136719 62.859375 77.785156 Z M 49.792969 86.542969 C 48.914062 86.152344 48.21875 85.285156 47.960938 84.25 C 47.765625 83.472656 47.851562 82.699219 48.203125 82.0625 L 63.152344 79.285156 C 63.367188 79.804688 63.703125 80.277344 64.121094 80.660156 Z M 102.421875 80.660156 C 102.84375 80.273438 103.175781 79.800781 103.390625 79.28125 L 118.34375 82.066406 C 118.691406 82.703125 118.777344 83.46875 118.582031 84.25 C 118.324219 85.289062 117.625 86.15625 116.746094 86.546875 Z M 102.226562 84.453125 C 102.449219 83.964844 102.5625 83.449219 102.5625 82.910156 C 102.5625 82.726562 102.546875 82.539062 102.519531 82.351562 L 115.792969 87.800781 C 116.054688 88.507812 115.988281 89.355469 115.605469 90.140625 C 115.199219 90.96875 114.484375 91.625 113.671875 91.914062 Z M 52.871094 91.914062 C 52.058594 91.625 51.347656 90.972656 50.941406 90.148438 C 50.550781 89.355469 50.484375 88.511719 50.746094 87.804688 L 64.027344 82.351562 C 64 82.535156 63.984375 82.722656 63.984375 82.910156 C 63.980469 83.445312 64.09375 83.96875 64.324219 84.464844 Z M 56.597656 96.390625 C 55.691406 96.246094 54.832031 95.675781 54.277344 94.84375 C 53.929688 94.332031 53.734375 93.769531 53.707031 93.203125 L 65.238281 85.699219 C 65.6875 86.109375 66.222656 86.414062 66.804688 86.585938 C 66.796875 86.617188 66.792969 86.648438 66.785156 86.679688 Z M 99.757812 86.675781 C 99.75 86.644531 99.742188 86.617188 99.738281 86.585938 C 100.316406 86.414062 100.847656 86.109375 101.304688 85.695312 L 112.835938 93.199219 C 112.808594 93.761719 112.617188 94.328125 112.269531 94.84375 C 111.707031 95.675781 110.847656 96.246094 109.945312 96.390625 Z M 60.980469 99.835938 C 60.109375 99.808594 59.242188 99.425781 58.582031 98.773438 C 58.179688 98.386719 57.890625 97.929688 57.726562 97.441406 L 66.894531 88.707031 C 67.039062 89.132812 67.265625 89.539062 67.554688 89.898438 C 67.609375 89.964844 67.667969 90.023438 67.730469 90.082031 Z M 98.8125 90.082031 C 98.871094 90.023438 98.929688 89.964844 98.984375 89.898438 C 99.277344 89.542969 99.5 89.136719 99.648438 88.707031 L 108.816406 97.441406 C 108.65625 97.929688 108.363281 98.386719 107.964844 98.773438 C 107.304688 99.425781 106.433594 99.808594 105.5625 99.835938 Z M 101.035156 102.644531 C 100.867188 102.644531 100.703125 102.632812 100.539062 102.605469 L 95.511719 91.398438 C 95.503906 91.390625 95.5 91.382812 95.496094 91.375 C 95.5 91.359375 95.503906 91.34375 95.503906 91.332031 C 95.632812 91.34375 95.753906 91.351562 95.875 91.351562 C 96.441406 91.351562 97.011719 91.21875 97.550781 90.96875 L 104.28125 100.695312 C 104.046875 101.164062 103.675781 101.585938 103.199219 101.929688 C 102.558594 102.390625 101.789062 102.644531 101.035156 102.644531 M 65.507812 102.644531 C 64.753906 102.644531 63.984375 102.390625 63.34375 101.929688 C 62.867188 101.585938 62.496094 101.164062 62.261719 100.695312 L 68.992188 90.972656 C 69.53125 91.21875 70.101562 91.351562 70.664062 91.351562 C 70.792969 91.351562 70.917969 91.34375 71.035156 91.332031 C 71.039062 91.347656 71.039062 91.363281 71.042969 91.378906 C 71.039062 91.394531 66.007812 102.605469 66.007812 102.605469 C 65.84375 102.632812 65.675781 102.644531 65.507812 102.644531 M 69.925781 104.734375 C 69.488281 104.734375 69.035156 104.644531 68.621094 104.46875 C 68.070312 104.242188 67.617188 103.878906 67.324219 103.441406 L 71.902344 93.246094 C 71.988281 93.351562 72.078125 93.449219 72.171875 93.539062 C 72.492188 93.84375 72.859375 94.089844 73.265625 94.273438 L 71.085938 104.5 C 70.742188 104.65625 70.34375 104.734375 69.925781 104.734375 M 96.617188 104.734375 C 96.199219 104.734375 95.800781 104.65625 95.457031 104.5 L 93.277344 94.273438 C 93.691406 94.085938 94.058594 93.839844 94.371094 93.535156 C 94.464844 93.449219 94.554688 93.351562 94.640625 93.25 L 99.21875 103.441406 C 98.925781 103.878906 98.472656 104.242188 97.925781 104.46875 C 97.507812 104.644531 97.054688 104.734375 96.617188 104.734375 M 74.792969 105.421875 C 74.703125 105.421875 74.613281 105.417969 74.519531 105.410156 C 73.765625 105.351562 73.097656 105.042969 72.664062 104.558594 L 74.78125 94.625 C 74.828125 94.628906 74.875 94.628906 74.921875 94.628906 C 75.566406 94.628906 76.222656 94.464844 76.820312 94.164062 L 76.332031 105.046875 C 75.878906 105.289062 75.339844 105.421875 74.792969 105.421875 M 91.746094 105.421875 C 91.195312 105.421875 90.667969 105.292969 90.210938 105.046875 L 89.71875 94.164062 C 90.320312 94.46875 90.964844 94.628906 91.617188 94.628906 C 91.667969 94.628906 91.714844 94.628906 91.761719 94.625 L 93.882812 104.566406 C 93.449219 105.042969 92.78125 105.351562 92.023438 105.410156 C 91.929688 105.417969 91.839844 105.421875 91.746094 105.421875 M 82.367188 124.195312 L 82.304688 120.636719 C 82.300781 120.375 82.152344 120.128906 81.917969 119.992188 C 81.035156 119.503906 80.507812 118.640625 80.507812 117.683594 C 80.507812 116.753906 81.003906 115.90625 81.835938 115.410156 C 82.074219 115.269531 82.21875 115.011719 82.210938 114.742188 C 82.105469 108.738281 81.984375 103.96875 81.75 100.226562 C 81.621094 98.121094 81.460938 96.5 81.265625 95.273438 C 81.027344 93.84375 80.820312 93.015625 80.351562 92.457031 C 79.808594 91.847656 79.191406 91.53125 78.554688 91.53125 C 77.691406 91.546875 77.105469 92.0625 76.753906 92.375 C 76.226562 92.855469 75.585938 93.109375 74.921875 93.109375 C 74.292969 93.109375 73.703125 92.875 73.253906 92.445312 C 72.792969 92.011719 72.542969 91.417969 72.542969 90.785156 C 72.542969 90.683594 72.550781 90.585938 72.558594 90.484375 C 72.59375 90.214844 72.484375 89.949219 72.265625 89.789062 C 72.125 89.6875 71.957031 89.632812 71.789062 89.632812 C 71.695312 89.632812 71.605469 89.648438 71.519531 89.679688 C 71.234375 89.777344 70.945312 89.828125 70.664062 89.828125 C 69.914062 89.820312 69.21875 89.5 68.765625 88.945312 C 68.425781 88.527344 68.246094 88.023438 68.246094 87.492188 C 68.246094 87.09375 68.347656 86.707031 68.542969 86.363281 C 68.675781 86.125 68.671875 85.84375 68.539062 85.605469 C 68.40625 85.378906 68.15625 85.230469 67.882812 85.226562 C 67.003906 85.199219 66.207031 84.71875 65.808594 83.976562 C 65.625 83.648438 65.535156 83.289062 65.535156 82.910156 C 65.535156 82.304688 65.785156 81.710938 66.222656 81.269531 C 66.410156 81.082031 66.488281 80.824219 66.429688 80.574219 C 66.371094 80.320312 66.195312 80.125 65.957031 80.03125 C 65.015625 79.667969 64.410156 78.8125 64.414062 77.851562 C 64.414062 77.058594 64.824219 76.332031 65.511719 75.886719 C 65.742188 75.742188 65.882812 75.480469 65.863281 75.21875 C 65.859375 74.960938 65.707031 74.714844 65.464844 74.585938 C 64.675781 74.15625 64.207031 73.390625 64.207031 72.539062 C 64.210938 71.773438 64.585938 71.082031 65.238281 70.636719 C 65.421875 70.515625 65.546875 70.304688 65.570312 70.074219 C 65.585938 69.84375 65.496094 69.625 65.332031 69.464844 C 64.859375 69.019531 64.589844 68.40625 64.589844 67.773438 C 64.59375 67.410156 64.675781 67.066406 64.835938 66.753906 C 65.246094 65.953125 66.085938 65.457031 67.03125 65.457031 C 67.320312 65.457031 67.582031 65.296875 67.71875 65.046875 C 67.855469 64.78125 67.832031 64.464844 67.652344 64.242188 C 67.359375 63.835938 67.195312 63.34375 67.195312 62.859375 C 67.195312 62.507812 67.277344 62.164062 67.441406 61.84375 C 67.792969 61.15625 68.46875 60.679688 69.253906 60.5625 C 69.460938 60.535156 69.648438 60.421875 69.769531 60.253906 C 69.890625 60.089844 69.941406 59.890625 69.90625 59.691406 C 69.851562 59.324219 69.53125 59.046875 69.144531 59.046875 C 69.101562 59.046875 69.0625 59.050781 69.019531 59.058594 C 68.867188 59.082031 68.703125 59.113281 68.539062 59.160156 L 62.214844 42.839844 C 62.4375 41.726562 63.195312 40.699219 64.257812 40.078125 C 64.921875 39.691406 65.65625 39.484375 66.371094 39.484375 C 67.003906 39.484375 67.59375 39.644531 68.085938 39.941406 L 68.25 40.941406 C 69.273438 47.25 71.667969 62.015625 72.167969 64.3125 C 72.242188 64.640625 72.277344 64.929688 72.277344 65.175781 C 72.277344 65.769531 72.058594 66.117188 71.582031 66.871094 L 71.449219 67.082031 C 70.765625 68.175781 70.035156 69.515625 69.304688 71.890625 C 68.894531 73.214844 68.6875 74.679688 68.6875 76.246094 C 68.703125 81.425781 70.828125 86.351562 73.972656 88.503906 C 75.230469 89.347656 76.34375 89.753906 77.382812 89.753906 C 78.554688 89.753906 79.574219 89.167969 80.203125 88.144531 C 80.769531 87.230469 81.054688 86.007812 81.054688 84.511719 C 81.054688 84.363281 81.054688 84.21875 81.050781 84.066406 C 81.011719 83.078125 81 81.707031 80.988281 80.121094 C 80.972656 78.523438 80.957031 76.710938 80.910156 74.976562 C 80.820312 72.042969 80.683594 69.054688 80.164062 67.496094 L 80.171875 67.46875 L 80.117188 67.332031 C 80.089844 67.265625 80.058594 67.191406 80.023438 67.117188 L 80.023438 67.070312 L 79.988281 67.03125 C 79.398438 65.933594 78.257812 65.125 76.507812 64.5625 C 76.488281 64.265625 76.476562 63.96875 76.476562 63.675781 C 76.476562 63.019531 76.527344 62.328125 76.621094 61.617188 C 77.875 60.207031 80.457031 59.296875 83.234375 59.296875 L 83.3125 59.296875 C 84.972656 59.296875 86.621094 59.636719 87.953125 60.25 C 88.019531 60.296875 88.097656 60.332031 88.1875 60.355469 C 88.902344 60.710938 89.496094 61.144531 89.914062 61.613281 C 90.011719 62.304688 90.066406 63.015625 90.066406 63.671875 C 90.066406 63.945312 90.054688 64.246094 90.03125 64.5625 C 88.28125 65.128906 87.140625 65.9375 86.550781 67.039062 L 86.535156 67.066406 L 86.527344 67.101562 C 86.496094 67.152344 86.453125 67.25 86.410156 67.355469 C 86.398438 67.394531 86.386719 67.4375 86.382812 67.480469 C 85.90625 68.859375 85.742188 71.378906 85.632812 74.976562 C 85.585938 76.714844 85.570312 78.53125 85.554688 80.132812 C 85.542969 81.714844 85.53125 83.082031 85.492188 84.070312 C 85.488281 84.214844 85.484375 84.363281 85.484375 84.503906 C 85.484375 86.007812 85.773438 87.234375 86.339844 88.148438 C 86.964844 89.167969 87.992188 89.753906 89.148438 89.753906 C 90.195312 89.75 91.335938 89.332031 92.5625 88.503906 C 95.714844 86.351562 97.839844 81.425781 97.851562 76.246094 C 97.851562 74.683594 97.644531 73.21875 97.238281 71.890625 C 96.515625 69.542969 95.78125 68.191406 95.089844 67.085938 L 94.941406 66.847656 C 94.476562 66.105469 94.265625 65.765625 94.265625 65.175781 C 94.265625 64.945312 94.300781 64.664062 94.371094 64.3125 C 94.902344 61.898438 97.558594 45.476562 98.429688 40.078125 L 98.453125 39.941406 C 98.949219 39.644531 99.535156 39.484375 100.167969 39.484375 C 100.882812 39.484375 101.617188 39.691406 102.28125 40.078125 C 103.339844 40.691406 104.101562 41.71875 104.328125 42.839844 L 98.003906 59.160156 C 97.839844 59.113281 97.679688 59.078125 97.519531 59.054688 C 97.480469 59.050781 97.441406 59.046875 97.402344 59.046875 C 97.011719 59.046875 96.691406 59.320312 96.632812 59.695312 C 96.601562 59.894531 96.65625 60.101562 96.777344 60.261719 C 96.902344 60.429688 97.085938 60.535156 97.292969 60.5625 C 98.070312 60.679688 98.75 61.160156 99.101562 61.84375 C 99.265625 62.164062 99.347656 62.503906 99.347656 62.859375 C 99.347656 63.34375 99.183594 63.835938 98.882812 64.242188 L 98.820312 64.324219 L 98.820312 64.375 C 98.753906 64.539062 98.726562 64.664062 98.734375 64.769531 L 98.722656 64.789062 L 98.773438 64.933594 C 98.867188 65.207031 99.109375 65.402344 99.40625 65.449219 L 99.5 65.457031 C 99.507812 65.457031 99.542969 65.457031 99.59375 65.449219 C 100.476562 65.46875 101.296875 65.96875 101.699219 66.753906 C 101.867188 67.070312 101.949219 67.410156 101.949219 67.769531 C 101.949219 68.402344 101.679688 69.015625 101.210938 69.453125 C 101.039062 69.613281 100.957031 69.839844 100.976562 70.074219 C 100.988281 70.292969 101.109375 70.5 101.300781 70.632812 C 101.945312 71.074219 102.320312 71.75 102.335938 72.496094 L 102.335938 72.539062 C 102.335938 73.378906 101.851562 74.160156 101.078125 74.582031 C 100.839844 74.703125 100.683594 74.953125 100.675781 75.226562 C 100.664062 75.488281 100.800781 75.746094 101.035156 75.890625 C 101.714844 76.324219 102.125 77.054688 102.128906 77.84375 L 102.128906 77.851562 C 102.128906 78.8125 101.527344 79.667969 100.585938 80.027344 C 100.335938 80.132812 100.164062 80.332031 100.113281 80.578125 C 100.058594 80.820312 100.132812 81.078125 100.316406 81.265625 C 100.761719 81.714844 101.003906 82.296875 101.003906 82.910156 C 101.003906 83.289062 100.914062 83.648438 100.738281 83.980469 C 100.339844 84.714844 99.539062 85.191406 98.652344 85.226562 C 98.390625 85.230469 98.140625 85.375 98.003906 85.605469 C 97.871094 85.839844 97.867188 86.121094 97.996094 86.355469 C 98.195312 86.703125 98.296875 87.089844 98.296875 87.492188 C 98.296875 88.023438 98.117188 88.523438 97.777344 88.941406 C 97.316406 89.5 96.621094 89.820312 95.875 89.820312 C 95.582031 89.820312 95.289062 89.773438 95.011719 89.675781 C 94.9375 89.648438 94.84375 89.632812 94.75 89.632812 C 94.582031 89.632812 94.414062 89.6875 94.277344 89.792969 C 94.066406 89.945312 93.949219 90.210938 93.976562 90.480469 C 93.992188 90.585938 93.996094 90.6875 93.996094 90.785156 C 93.996094 91.425781 93.746094 92.015625 93.289062 92.445312 C 92.835938 92.875 92.246094 93.109375 91.617188 93.109375 C 90.957031 93.109375 90.3125 92.855469 89.8125 92.398438 C 89.429688 92.058594 88.84375 91.542969 87.988281 91.53125 C 87.347656 91.53125 86.730469 91.847656 86.195312 92.449219 C 85.722656 93.015625 85.507812 93.878906 85.277344 95.269531 C 84.65625 99.21875 84.46875 107.050781 84.332031 114.734375 C 84.328125 115.011719 84.46875 115.261719 84.707031 115.40625 C 85.550781 115.898438 86.050781 116.75 86.050781 117.683594 C 86.050781 118.632812 85.507812 119.519531 84.636719 119.996094 C 84.394531 120.128906 84.242188 120.378906 84.238281 120.652344 L 84.179688 124.195312 Z M 82.367188 124.195312 "/>
<path fill-rule="nonzero" fill="rgb(0%, 0%, 0%)" fill-opacity="1" d="M 163.183594 60.617188 C 163.183594 66.664062 159.1875 70.550781 152.347656 70.550781 C 145.546875 70.550781 141.515625 66.664062 141.515625 60.617188 L 141.515625 44.128906 L 147.058594 44.128906 L 147.058594 60.078125 C 147.058594 63.460938 148.964844 65.476562 152.347656 65.476562 C 155.769531 65.476562 157.640625 63.460938 157.640625 60.078125 L 157.640625 44.128906 L 163.183594 44.128906 Z M 163.183594 60.617188 "/>
<path fill-rule="nonzero" fill="rgb(0%, 0%, 0%)" fill-opacity="1" d="M 190.328125 70.445312 L 176.109375 56.800781 L 174.417969 55.324219 L 174.417969 70.046875 L 168.980469 70.046875 L 168.980469 43.734375 L 169.199219 43.734375 L 183.382812 57.378906 L 185.035156 58.851562 L 185.035156 44.128906 L 190.507812 44.128906 L 190.507812 70.445312 Z M 190.328125 70.445312 "/>
<path fill-rule="nonzero" fill="rgb(0%, 0%, 0%)" fill-opacity="1" d="M 196.664062 44.128906 L 202.210938 44.128906 L 202.210938 70.046875 L 196.664062 70.046875 Z M 196.664062 44.128906 "/>
<path fill-rule="nonzero" fill="rgb(0%, 0%, 0%)" fill-opacity="1" d="M 218.085938 70.445312 L 217.867188 70.445312 L 205.089844 44.128906 L 211.136719 44.128906 L 214.523438 51.617188 C 215.855469 54.605469 217.039062 57.160156 217.941406 59.679688 C 218.695312 57.84375 220.28125 54.171875 221.433594 51.617188 L 224.816406 44.128906 L 230.828125 44.128906 Z M 218.085938 70.445312 "/>
<path fill-rule="nonzero" fill="rgb(0%, 0%, 0%)" fill-opacity="1" d="M 233.746094 70.046875 L 233.746094 44.128906 L 250.410156 44.128906 L 250.410156 48.773438 L 239.289062 48.773438 L 239.289062 54.675781 L 248.71875 54.675781 L 248.71875 59.140625 L 239.289062 59.140625 L 239.289062 65.402344 L 250.949219 65.402344 L 250.949219 70.046875 Z M 233.746094 70.046875 "/>
<path fill-rule="nonzero" fill="rgb(0%, 0%, 0%)" fill-opacity="1" d="M 260.886719 48.773438 L 260.886719 56.511719 L 264.847656 56.511719 C 267.296875 56.511719 268.988281 55.289062 268.988281 52.660156 C 268.988281 50.070312 267.222656 48.773438 264.703125 48.773438 Z M 264.558594 44.128906 C 270.570312 44.128906 274.566406 47.117188 274.566406 52.660156 C 274.566406 56.441406 272.445312 58.925781 269.636719 60.039062 L 275.070312 70.046875 L 269.203125 70.046875 L 264.632812 60.976562 L 260.886719 60.976562 L 260.886719 70.046875 L 255.453125 70.046875 L 255.453125 44.128906 Z M 264.558594 44.128906 "/>
<path fill-rule="nonzero" fill="rgb(0%, 0%, 0%)" fill-opacity="1" d="M 278.3125 69.074219 L 278.3125 63.75 C 280.113281 64.683594 282.488281 65.476562 284.828125 65.621094 C 285.65625 65.65625 286.449219 65.621094 287.132812 65.476562 C 289.113281 65.1875 290.261719 64.429688 290.261719 63.171875 C 290.261719 61.445312 288.714844 60.542969 285.152344 59.25 C 280.617188 57.59375 277.953125 55.683594 277.953125 51.183594 C 277.953125 46.578125 281.769531 43.625 287.347656 43.625 C 289.9375 43.625 292.496094 44.203125 294.117188 44.921875 L 294.117188 50.035156 C 292.601562 49.132812 290.15625 48.449219 287.78125 48.449219 C 285.117188 48.449219 283.386719 49.496094 283.386719 51.148438 C 283.386719 52.660156 284.792969 53.707031 288.320312 55.039062 C 292.855469 56.800781 295.664062 58.710938 295.664062 63.066406 C 295.664062 67.742188 292.136719 70.550781 286.015625 70.550781 C 283.0625 70.550781 280.183594 69.902344 278.3125 69.074219 "/>
<path fill-rule="nonzero" fill="rgb(0%, 0%, 0%)" fill-opacity="1" d="M 299.984375 44.128906 L 305.527344 44.128906 L 305.527344 70.046875 L 299.984375 70.046875 Z M 299.984375 44.128906 "/>
<path fill-rule="nonzero" fill="rgb(0%, 0%, 0%)" fill-opacity="1" d="M 322.015625 48.773438 L 322.015625 70.046875 L 316.46875 70.046875 L 316.46875 48.773438 L 309.238281 48.773438 L 309.238281 44.128906 L 329.285156 44.128906 L 329.285156 48.773438 Z M 322.015625 48.773438 "/>
<path fill-rule="nonzero" fill="rgb(0%, 0%, 0%)" fill-opacity="1" d="M 335.585938 44.128906 L 341.527344 54.75 L 347.464844 44.128906 L 353.730469 44.128906 L 344.296875 60.003906 L 344.296875 70.046875 L 338.753906 70.046875 L 338.753906 60.003906 L 329.359375 44.128906 Z M 335.585938 44.128906 "/>
<path fill-rule="nonzero" fill="rgb(0%, 0%, 0%)" fill-opacity="1" d="M 153.789062 100.328125 C 158.46875 100.328125 161.78125 96.585938 161.78125 91.941406 C 161.78125 87.332031 158.46875 83.554688 153.789062 83.554688 C 149.109375 83.554688 145.800781 87.332031 145.800781 91.941406 C 145.800781 96.585938 149.109375 100.328125 153.789062 100.328125 M 153.789062 78.476562 C 161.601562 78.476562 167.359375 84.453125 167.359375 91.941406 C 167.359375 99.5 161.636719 105.402344 153.789062 105.402344 C 145.941406 105.402344 140.21875 99.5 140.21875 91.941406 C 140.21875 84.488281 145.941406 78.476562 153.789062 78.476562 "/>
<path fill-rule="nonzero" fill="rgb(0%, 0%, 0%)" fill-opacity="1" d="M 177.441406 83.625 L 177.441406 89.816406 L 186.082031 89.816406 L 186.082031 94.386719 L 177.441406 94.386719 L 177.441406 104.898438 L 171.898438 104.898438 L 171.898438 78.980469 L 187.699219 78.980469 L 187.699219 83.625 Z M 177.441406 83.625 "/>
<path fill-rule="nonzero" fill="rgb(0%, 0%, 0%)" fill-opacity="1" d="M 209.265625 83.625 L 209.265625 104.898438 L 203.71875 104.898438 L 203.71875 83.625 L 196.488281 83.625 L 196.488281 78.980469 L 216.535156 78.980469 L 216.535156 83.625 Z M 209.265625 83.625 "/>
<path fill-rule="nonzero" fill="rgb(0%, 0%, 0%)" fill-opacity="1" d="M 241.554688 95.46875 C 241.554688 101.515625 237.558594 105.402344 230.71875 105.402344 C 223.917969 105.402344 219.882812 101.515625 219.882812 95.46875 L 219.882812 78.980469 L 225.429688 78.980469 L 225.429688 94.929688 C 225.429688 98.3125 227.335938 100.328125 230.71875 100.328125 C 234.140625 100.328125 236.011719 98.3125 236.011719 94.929688 L 236.011719 78.980469 L 241.554688 78.980469 Z M 241.554688 95.46875 "/>
<path fill-rule="nonzero" fill="rgb(0%, 0%, 0%)" fill-opacity="1" d="M 252.789062 83.625 L 252.789062 91.363281 L 256.746094 91.363281 C 259.195312 91.363281 260.886719 90.140625 260.886719 87.511719 C 260.886719 84.921875 259.121094 83.625 256.601562 83.625 Z M 256.460938 78.980469 C 262.472656 78.980469 266.464844 81.96875 266.464844 87.511719 C 266.464844 91.292969 264.34375 93.777344 261.535156 94.890625 L 266.96875 104.898438 L 261.101562 104.898438 L 256.53125 95.828125 L 252.789062 95.828125 L 252.789062 104.898438 L 247.351562 104.898438 L 247.351562 78.980469 Z M 256.460938 78.980469 "/>
<path fill-rule="nonzero" fill="rgb(0%, 0%, 0%)" fill-opacity="1" d="M 276.941406 91.222656 L 287.023438 78.980469 L 293.574219 78.980469 L 284.394531 89.816406 L 293.71875 104.898438 L 287.527344 104.898438 L 280.652344 93.378906 L 276.941406 97.59375 L 276.941406 104.898438 L 271.398438 104.898438 L 271.398438 78.980469 L 276.941406 78.980469 Z M 276.941406 91.222656 "/>
<path fill-rule="nonzero" fill="rgb(0%, 0%, 0%)" fill-opacity="1" d="M 318.269531 95.46875 C 318.269531 101.515625 314.273438 105.402344 307.433594 105.402344 C 300.632812 105.402344 296.597656 101.515625 296.597656 95.46875 L 296.597656 78.980469 L 302.144531 78.980469 L 302.144531 94.929688 C 302.144531 98.3125 304.050781 100.328125 307.433594 100.328125 C 310.855469 100.328125 312.726562 98.3125 312.726562 94.929688 L 312.726562 78.980469 L 318.269531 78.980469 Z M 318.269531 95.46875 "/>
</svg>
