<?xml version="1.0" standalone="no"?>
<!DOCTYPE svg PUBLIC "-//W3C//DTD SVG 20010904//EN"
 "http://www.w3.org/TR/2001/REC-SVG-20010904/DTD/svg10.dtd">
<svg version="1.0" xmlns="http://www.w3.org/2000/svg"
 width="397.000000pt" height="147.000000pt" viewBox="0 0 397.000000 147.000000"
 preserveAspectRatio="xMidYMid meet">
<metadata>
Created by potrace 1.16, written by Peter Selinger 2001-2019
</metadata>
<g transform="translate(0.000000,147.000000) scale(0.100000,-0.100000)"
fill="#000000" stroke="none">
<path d="M817 1094 c-4 -4 -7 -23 -8 -43 0 -35 -1 -35 -12 -11 -11 24 -11 23
-15 -20 -2 -25 -7 -49 -13 -54 -12 -13 -12 -53 1 -77 7 -13 7 -19 0 -19 -17 0
-11 -41 10 -58 16 -14 20 -32 22 -114 3 -111 -5 -129 -47 -110 -28 13 -65 82
-65 122 0 14 9 44 19 67 19 41 19 43 -2 172 l-21 131 -29 0 c-20 0 -30 -6 -34
-19 -3 -11 -15 -21 -27 -23 -11 -2 -25 -13 -31 -25 -5 -13 -16 -23 -23 -23 -7
0 -15 -13 -18 -30 -4 -16 -10 -30 -15 -30 -5 0 -13 -9 -19 -21 -9 -15 -8 -24
2 -37 7 -9 8 -13 2 -9 -24 14 -36 -23 -36 -103 0 -43 4 -85 8 -92 5 -7 7 -20
6 -29 -2 -9 4 -22 13 -29 8 -7 15 -18 15 -25 0 -22 86 -115 108 -115 6 0 12
-4 12 -8 0 -12 70 -40 110 -44 l35 -3 3 68 c2 50 7 67 17 67 17 0 22 -19 30
-127 5 -59 3 -87 -7 -102 -10 -17 -10 -25 0 -41 6 -11 12 -27 12 -35 0 -8 6
-15 13 -15 16 0 39 72 26 84 -10 11 -10 154 0 200 9 43 31 46 31 4 0 -91 24
-134 49 -90 6 9 11 11 11 5 0 -18 30 -15 65 8 17 10 37 22 45 26 24 11 70 57
70 69 0 7 7 15 16 18 11 4 15 14 12 30 -3 16 0 23 11 22 20 -1 33 51 36 149 1
53 -2 87 -11 102 -8 12 -14 32 -14 43 0 26 -25 36 -48 19 -15 -12 -15 -11 1 8
15 17 16 25 7 42 -6 12 -17 21 -25 21 -7 0 -15 10 -17 22 -2 13 -11 24 -23 27
-11 2 -26 12 -33 22 -7 11 -24 19 -36 19 -27 0 -27 1 -52 -153 -16 -101 -16
-111 -1 -143 24 -50 22 -114 -5 -154 -32 -46 -52 -57 -73 -40 -14 12 -16 29
-13 108 3 85 5 96 27 113 21 17 22 23 12 45 -6 14 -8 36 -5 50 8 30 -3 77 -16
69 -6 -4 -6 5 0 21 6 15 8 35 5 43 -6 14 -8 14 -20 -2 -12 -16 -14 -14 -27 23
-7 23 -17 38 -21 34z m-2 -204 c3 -5 1 -10 -4 -10 -6 0 -11 5 -11 10 0 6 2 10
4 10 3 0 8 -4 11 -10z m-148 -62 c-3 -7 -5 -2 -5 12 0 14 2 19 5 13 2 -7 2
-19 0 -25z m-32 2 c10 -11 16 -20 13 -20 -3 0 -13 9 -23 20 -10 11 -16 20 -13
20 3 0 13 -9 23 -20z m392 -42 c-3 -8 -6 -5 -6 6 -1 11 2 17 5 13 3 -3 4 -12
1 -19z m18 -36 c-3 -3 -11 0 -18 7 -9 10 -8 11 6 5 10 -3 15 -9 12 -12z m-405
-2 c0 -5 -2 -10 -4 -10 -3 0 -8 5 -11 10 -3 6 -1 10 4 10 6 0 11 -4 11 -10z
m-52 -27 c-16 -2 -40 -2 -55 0 -16 2 -3 4 27 4 30 0 43 -2 28 -4z m545 0 c-13
-2 -35 -2 -50 0 -16 2 -5 4 22 4 28 0 40 -2 28 -4z m-478 -63 c-3 -5 -12 -10
-18 -10 -7 0 -6 4 3 10 19 12 23 12 15 0z m385 -6 c0 -2 -7 -4 -15 -4 -8 0
-15 4 -15 10 0 5 7 7 15 4 8 -4 15 -8 15 -10z m-363 -56 c-3 -8 -6 -5 -6 6 -1
11 2 17 5 13 3 -3 4 -12 1 -19z m-37 -31 c0 -2 -10 -12 -22 -23 l-23 -19 19
23 c18 21 26 27 26 19z m320 -1 c0 -3 -4 -8 -10 -11 -5 -3 -10 -1 -10 4 0 6 5
11 10 11 6 0 10 -2 10 -4z m-30 -36 c0 -5 -2 -10 -4 -10 -3 0 -8 5 -11 10 -3
6 -1 10 4 10 6 0 11 -4 11 -10z"/>
<path d="M1410 940 c0 -54 5 -110 11 -124 28 -60 141 -72 190 -20 22 23 24 36
27 135 l4 109 -36 0 -35 0 -3 -96 c-3 -84 -6 -98 -23 -109 -13 -9 -28 -10 -42
-4 -22 8 -23 14 -23 109 l0 100 -35 0 -35 0 0 -100z"/>
<path d="M1680 905 l0 -135 35 0 35 0 0 67 0 67 48 -45 c26 -24 62 -57 80 -74
l32 -29 0 142 0 142 -30 0 -30 0 0 -71 0 -71 -77 71 c-43 39 -81 71 -85 71 -5
0 -8 -61 -8 -135z"/>
<path d="M1960 905 l0 -135 35 0 35 0 0 135 0 135 -35 0 -35 0 0 -135z"/>
<path d="M2050 1033 c-1 -14 123 -273 129 -273 7 0 131 259 131 273 0 4 -15 7
-33 7 -32 0 -35 -3 -62 -65 -15 -36 -31 -65 -35 -65 -4 0 -20 29 -35 65 -27
62 -30 65 -62 65 -18 0 -33 -3 -33 -7z"/>
<path d="M2330 905 l0 -135 90 0 c89 0 90 0 90 25 0 24 -3 25 -55 25 -54 0
-55 0 -55 30 0 29 2 30 45 30 41 0 45 2 45 25 0 23 -4 25 -45 25 -41 0 -45 2
-45 25 0 24 3 25 55 25 54 0 55 0 55 30 l0 30 -90 0 -90 0 0 -135z"/>
<path d="M2550 906 l0 -136 30 0 c29 0 30 2 30 45 0 34 4 45 15 45 8 0 25 -20
37 -45 20 -42 25 -45 61 -45 l38 0 -27 48 -27 49 21 21 c30 30 29 83 -1 118
-21 24 -32 27 -100 32 l-77 5 0 -137z m128 45 c4 -26 -12 -41 -45 -41 -20 0
-23 5 -23 36 0 34 1 35 33 32 25 -2 33 -8 35 -27z"/>
<path d="M2813 1028 c-30 -14 -45 -60 -32 -97 8 -22 25 -36 67 -56 54 -26 56
-28 37 -42 -19 -13 -48 -13 -87 2 -15 6 -18 1 -18 -28 0 -34 2 -35 45 -42 54
-8 111 8 125 35 29 53 1 103 -73 134 -54 22 -43 41 22 40 49 -2 51 -1 51 26 0
16 -7 30 -16 34 -24 9 -97 6 -121 -6z"/>
<path d="M2990 905 l0 -135 35 0 35 0 0 135 0 135 -35 0 -35 0 0 -135z"/>
<path d="M3090 1010 c0 -28 3 -30 35 -30 l35 0 0 -105 0 -105 35 0 35 0 0 105
0 105 34 0 c19 0 36 5 38 10 2 6 20 -18 41 -54 29 -52 37 -76 37 -116 l0 -50
35 0 35 0 0 51 c0 43 7 63 45 126 25 40 45 78 45 83 0 6 -15 10 -34 10 -31 0
-37 -5 -62 -50 l-28 -51 -29 51 -29 50 -134 0 -134 0 0 -30z"/>
<path d="M1475 680 c-55 -22 -89 -104 -71 -173 15 -63 103 -107 175 -87 108
29 135 185 42 247 -35 24 -105 30 -146 13z m112 -72 c49 -46 16 -128 -51 -128
-56 0 -88 57 -62 109 25 46 75 55 113 19z"/>
<path d="M1710 555 l0 -135 35 0 35 0 0 50 0 50 45 0 c43 0 45 1 45 30 0 29
-2 30 -45 30 -41 0 -45 2 -45 25 0 23 3 25 50 25 49 0 50 1 50 30 l0 30 -85 0
-85 0 0 -135z"/>
<path d="M1960 660 c0 -28 3 -30 35 -30 l35 0 0 -105 0 -105 35 0 35 0 0 105
0 105 35 0 c32 0 35 2 35 30 l0 30 -105 0 -105 0 0 -30z"/>
<path d="M2190 598 c0 -117 17 -157 74 -176 41 -13 90 -8 117 11 31 23 39 56
39 156 l0 101 -30 0 -30 0 0 -83 c0 -91 -15 -127 -54 -127 -39 0 -46 18 -46
117 l0 93 -35 0 -35 0 0 -92z"/>
<path d="M2470 556 l0 -136 30 0 c29 0 30 2 30 45 0 34 4 45 15 45 8 0 25 -20
37 -45 19 -40 26 -45 55 -45 39 0 40 8 11 59 l-22 38 22 28 c29 36 28 77 -2
112 -21 25 -31 28 -100 31 l-76 4 0 -136z m129 50 c4 -22 -23 -46 -51 -46 -14
0 -18 8 -18 36 0 34 1 35 32 32 23 -2 34 -9 37 -22z"/>
<path d="M2710 555 l0 -135 30 0 c27 0 30 3 30 33 0 17 8 42 18 55 l18 23 30
-53 c27 -47 34 -53 67 -56 20 -2 37 0 37 5 0 4 -20 39 -44 78 l-44 69 44 52
c24 28 44 54 44 58 0 3 -17 6 -38 6 -33 0 -42 -6 -82 -56 l-45 -57 -3 57 c-3
55 -4 56 -32 56 l-30 0 0 -135z"/>
<path d="M2960 586 c0 -89 3 -107 21 -129 40 -52 141 -55 185 -6 16 17 20 40
22 130 l4 109 -36 0 -36 0 0 -94 c0 -86 -2 -96 -22 -110 -19 -13 -25 -14 -43
-2 -17 12 -20 26 -23 110 l-3 96 -34 0 -35 0 0 -104z"/>
</g>
</svg>
